<svg width="662" height="603" viewBox="0 0 662 603" fill="none" xmlns="http://www.w3.org/2000/svg">
<path d="M257.787 602.491C335.138 602.491 397.843 591.054 397.843 576.946C397.843 562.838 335.138 551.401 257.787 551.401C180.437 551.401 117.731 562.838 117.731 576.946C117.731 591.054 180.437 602.491 257.787 602.491Z" fill="#D6D6D6"/>
<path d="M369.604 575.489C369.561 575.093 369.457 574.706 369.295 574.342C368.705 573.326 367.857 572.483 366.838 571.899C362.882 569.708 358.615 568.135 354.183 567.234C342.75 564.394 325.798 562.099 304.771 560.672C280.143 559.067 255.449 558.708 230.785 559.597C216.864 560.098 202.253 560.981 187.199 562.702C179.665 563.57 172.028 564.645 164.377 566.219C160.527 566.982 156.725 567.965 152.987 569.162C151.109 569.773 149.288 570.546 147.543 571.472C146.689 571.922 145.893 572.476 145.174 573.12C144.468 573.695 144.018 574.525 143.923 575.43C143.962 575.881 144.092 576.319 144.305 576.719C144.517 577.118 144.808 577.471 145.159 577.755C145.877 578.405 146.673 578.964 147.528 579.418C149.269 580.337 151.086 581.105 152.958 581.714C156.699 582.916 160.507 583.899 164.362 584.657C172.014 586.231 179.665 587.305 187.185 588.188C202.253 589.895 216.864 590.778 230.785 591.278C255.454 592.168 280.152 591.809 304.786 590.204C325.798 588.733 342.75 586.481 354.198 583.656C358.623 582.743 362.885 581.165 366.838 578.977C367.86 578.396 368.709 577.553 369.295 576.534C369.459 576.17 369.563 575.783 369.604 575.386C369.628 575.792 369.547 576.198 369.369 576.564C368.801 577.615 367.957 578.49 366.926 579.094C362.992 581.369 358.72 583.004 354.272 583.936C342.823 586.879 325.857 589.248 304.815 590.749C280.166 592.422 255.447 592.835 230.755 591.985C216.82 591.514 202.194 590.646 187.096 588.924C179.562 588.056 171.896 586.982 164.2 585.392C160.318 584.647 156.485 583.664 152.722 582.449C150.802 581.826 148.941 581.033 147.16 580.08C146.243 579.605 145.392 579.011 144.629 578.315C144.171 577.988 143.797 577.557 143.539 577.056C143.281 576.556 143.146 576.001 143.146 575.438C143.146 574.875 143.281 574.32 143.539 573.82C143.797 573.319 144.171 572.888 144.629 572.561C145.405 571.881 146.254 571.289 147.16 570.795C148.941 569.847 150.802 569.06 152.722 568.441C156.485 567.227 160.318 566.244 164.2 565.498C171.896 563.909 179.548 562.835 187.096 561.966C202.179 560.26 216.806 559.391 230.741 558.906C255.432 558.055 280.151 558.468 304.8 560.142C325.828 561.613 342.794 564.026 354.242 566.955C358.69 567.903 362.964 569.537 366.912 571.796C367.942 572.4 368.787 573.276 369.354 574.327C369.535 574.687 369.621 575.087 369.604 575.489Z" fill="#F9F9F9"/>
<path d="M329.344 574.312C329.301 574.068 329.227 573.831 329.124 573.606C328.757 572.98 328.221 572.47 327.578 572.134C325.075 570.753 322.376 569.76 319.574 569.191C309.274 566.977 298.812 565.599 288.29 565.071C275.047 564.203 259.081 563.82 241.453 564.438C232.624 564.747 223.397 565.306 213.877 566.395C209.109 566.955 204.268 567.631 199.442 568.632C197.01 569.126 194.608 569.755 192.246 570.516C191.063 570.905 189.915 571.398 188.818 571.987C187.788 572.546 186.655 573.37 186.596 574.371C186.537 575.371 187.773 576.195 188.818 576.769C189.909 577.362 191.051 577.854 192.231 578.241C194.59 579.013 196.993 579.642 199.427 580.124C204.268 581.14 209.109 581.817 213.862 582.376C223.397 583.465 232.638 584.009 241.453 584.333C259.11 584.951 274.988 584.568 288.29 583.7C298.812 583.173 309.274 581.795 319.574 579.58C322.376 579.011 325.075 578.018 327.578 576.637C328.221 576.301 328.757 575.791 329.124 575.165C329.23 574.936 329.304 574.694 329.344 574.444C329.349 574.702 329.299 574.958 329.197 575.195C328.872 575.868 328.362 576.435 327.726 576.828C325.23 578.27 322.524 579.312 319.706 579.918C309.411 582.266 298.936 583.742 288.393 584.333C272.785 585.416 257.132 585.686 241.497 585.142C232.668 584.848 223.397 584.303 213.833 583.214C209.065 582.67 204.209 581.993 199.324 580.978C196.862 580.485 194.43 579.851 192.04 579.08C190.818 578.691 189.632 578.199 188.494 577.608C187.909 577.292 187.362 576.912 186.861 576.475C186.557 576.255 186.309 575.967 186.139 575.633C185.968 575.299 185.879 574.93 185.879 574.555C185.879 574.18 185.968 573.81 186.139 573.476C186.309 573.143 186.557 572.854 186.861 572.634C187.363 572.195 187.91 571.81 188.494 571.487C189.633 570.899 190.82 570.407 192.04 570.015C194.452 569.234 196.909 568.6 199.398 568.117C204.268 567.102 209.124 566.425 213.906 565.88C223.456 564.791 232.727 564.247 241.556 563.953C257.191 563.409 272.844 563.679 288.452 564.762C298.995 565.352 309.469 566.829 319.765 569.176C322.582 569.785 325.287 570.828 327.785 572.267C328.42 572.66 328.931 573.227 329.256 573.9C329.301 574.033 329.331 574.172 329.344 574.312Z" fill="#F9F9F9"/>
<path d="M460.006 575.047C459.945 574.811 459.833 574.591 459.678 574.403C459.523 574.214 459.329 574.063 459.108 573.958C457.854 573.272 456.505 572.776 455.106 572.487C449.975 571.43 444.77 570.776 439.537 570.53C432.901 570.118 424.94 569.941 416.141 570.25C411.726 570.427 407.121 570.706 402.368 571.251C399.984 571.53 397.571 571.869 395.158 572.369C393.948 572.612 392.754 572.926 391.582 573.311C391.006 573.491 390.449 573.728 389.919 574.017C389.404 574.282 388.904 574.709 388.889 575.047C388.874 575.385 389.389 575.797 389.904 576.077C390.445 576.354 391.006 576.59 391.582 576.783C392.755 577.164 393.949 577.479 395.158 577.725C397.571 578.225 399.984 578.564 402.368 578.843C407.121 579.388 411.741 579.667 416.141 579.829C424.97 580.153 432.901 579.976 439.552 579.55C444.805 579.295 450.03 578.631 455.179 577.563C456.577 577.267 457.925 576.771 459.182 576.092C459.401 575.986 459.595 575.833 459.749 575.645C459.904 575.457 460.017 575.238 460.079 575.003C460.121 575.127 460.121 575.261 460.079 575.385C459.914 575.735 459.647 576.027 459.314 576.224C458.076 576.966 456.724 577.498 455.312 577.799C450.131 579.031 444.853 579.809 439.537 580.124C431.702 580.678 423.844 580.825 415.994 580.565C411.579 580.418 406.944 580.153 402.162 579.609C399.763 579.344 397.335 579.005 394.893 578.49C393.647 578.249 392.419 577.93 391.214 577.534C390.592 577.338 389.991 577.082 389.419 576.769C389.048 576.633 388.718 576.406 388.461 576.107C388.203 575.808 388.026 575.448 387.947 575.062C388.065 574.076 388.83 573.708 389.419 573.37C390.002 573.069 390.607 572.813 391.229 572.604C392.433 572.222 393.656 571.903 394.893 571.648C397.335 571.148 399.763 570.809 402.162 570.53C406.944 569.985 411.579 569.72 415.994 569.573C423.844 569.309 431.703 569.462 439.537 570.029C444.815 570.329 450.058 571.078 455.209 572.266C456.62 572.577 457.971 573.114 459.211 573.855C459.548 574.048 459.815 574.341 459.976 574.694C460.021 574.806 460.032 574.929 460.006 575.047Z" fill="#EBEBEB"/>
<path d="M526.796 473.602H455.208V492.54H526.796V473.602Z" fill="#F9F9F9"/>
<path d="M496.53 512.435C496.53 512.435 496.53 512.303 496.53 512.082V511.111C496.53 510.228 496.53 508.977 496.53 507.388C496.53 504.121 496.53 499.413 496.412 493.482L496.633 493.718L425.045 493.85L425.413 493.482V503.091C425.413 506.255 425.413 509.374 425.413 512.42L425.06 512.053L476.076 512.214L491.041 512.435H495.117H496.191C496.313 512.414 496.437 512.414 496.559 512.435H496.235H495.205H491.218L476.238 512.538L424.971 512.7H424.618V512.435C424.618 509.389 424.618 506.27 424.618 503.106V493.497L424.986 493.144L496.574 493.276H496.794V493.497C496.794 499.486 496.706 504.224 496.677 507.535C496.677 509.11 496.677 510.331 496.677 511.214C496.677 511.596 496.677 511.905 496.677 512.141C496.641 512.245 496.591 512.344 496.53 512.435Z" fill="#F9F9F9"/>
<path d="M393.935 94.3716H322.348V113.31H393.935V94.3716Z" fill="#F5F5F5"/>
<path d="M363.666 133.263C363.666 133.263 363.666 133.145 363.666 132.924V131.953C363.666 131.055 363.666 129.805 363.666 128.215C363.666 124.949 363.666 120.255 363.534 114.325L363.754 114.545L292.181 114.692C292.328 114.531 291.813 115.046 292.534 114.325V123.963C292.534 127.122 292.534 130.226 292.534 133.277L292.181 132.924L343.198 133.086L358.266 133.189H362.327H363.401H363.769H363.445H362.43H358.427L343.448 133.292L292.181 133.454H291.828V123.963C291.828 122.374 291.828 120.784 291.828 119.18V114.369C292.564 113.633 292.034 114.163 292.211 114.001L363.784 114.148H364.019V114.369C364.019 120.343 363.916 125.096 363.887 128.392C363.887 129.966 363.887 131.188 363.887 132.071C363.887 132.453 363.887 132.762 363.887 132.998C363.887 133.233 363.681 133.263 363.666 133.263Z" fill="#D6D6D6"/>
<path d="M662 494.5C662 494.769 513.727 495 331.015 495C148.303 495 0 494.808 0 494.5C0 494.192 148.181 494 331.015 494C513.849 494 662 494.25 662 494.5Z" fill="#D6D6D6"/>
<path d="M596.741 600.919L392.658 600.757C368.058 600.757 348.151 580.851 348.151 556.251L348.313 44.5065C348.313 19.9066 368.22 0 392.82 0L596.902 0.161842C621.502 0.161842 641.409 20.0684 641.409 44.6684L641.247 556.412C641.247 581.012 621.34 600.919 596.741 600.919Z" fill="#263238"/>
<path d="M596.08 18.447H556.429C551.088 18.447 546.88 22.9786 546.88 28.4812V35.6023C546.88 41.1049 542.51 45.6365 537.331 45.6365H460.133C454.792 45.6365 450.584 41.1049 450.584 35.6023V28.4812C450.584 22.9786 446.214 18.447 441.035 18.447H427.117H392.483C375.328 18.447 361.247 32.3654 361.247 49.5207L361.085 548.965C361.085 566.12 375.004 580.038 392.159 580.038L595.918 580.2C613.073 580.2 626.992 566.282 627.154 549.127L627.315 49.6825C627.154 32.3654 613.235 18.447 596.08 18.447Z" fill="white"/>
<path d="M612.89 222.433H376.73C375.434 222.433 374.383 223.484 374.383 224.78V261.696C374.383 262.992 375.434 264.043 376.73 264.043H612.89C614.186 264.043 615.236 262.992 615.236 261.696V224.78C615.236 223.484 614.186 222.433 612.89 222.433Z" fill="#F5F5F5"/>
<path d="M612.89 264.042C613.371 264.006 613.835 263.845 614.234 263.573C614.708 263.225 615.032 262.711 615.14 262.133C615.182 261.319 615.182 260.503 615.14 259.689C615.14 255.934 615.14 250.432 615.059 243.343C615.059 239.799 615.059 235.85 615.059 231.545C615.059 229.376 615.059 227.126 615.059 224.78C615.051 224.235 614.836 223.714 614.457 223.323C614.078 222.932 613.564 222.7 613.02 222.676H609.314H575.084L376.795 222.789C376.294 222.788 375.812 222.982 375.45 223.329C375.088 223.676 374.874 224.149 374.853 224.65V260.255C374.853 260.806 374.853 261.485 374.853 261.874C374.929 262.353 375.183 262.785 375.564 263.086C375.945 263.386 376.425 263.531 376.909 263.492H441.645L530.788 263.589L590.896 263.719L607.242 263.929H590.912L530.804 264.075L441.662 264.156H389.014H376.941C376.261 264.186 375.594 263.967 375.064 263.541C374.521 263.112 374.162 262.493 374.06 261.809C374.029 261.205 374.029 260.6 374.06 259.996V249.46C374.06 244.735 374.06 239.993 374.06 235.202V224.391C374.085 223.67 374.39 222.986 374.909 222.485C375.428 221.984 376.122 221.704 376.844 221.705L575.133 221.834H609.362H613.101C613.758 221.867 614.377 222.151 614.832 222.626C615.286 223.102 615.541 223.733 615.545 224.391C615.545 226.738 615.545 228.987 615.545 231.156C615.545 235.461 615.545 239.41 615.545 242.954C615.545 250.043 615.545 255.546 615.464 259.3C615.464 260.239 615.464 261.048 615.464 261.777C615.327 262.377 614.976 262.906 614.476 263.266C614.172 263.474 613.823 263.608 613.457 263.654C613.29 263.813 613.099 263.944 612.89 264.042Z" fill="#263238"/>
<path d="M613.132 279.579H376.972C375.676 279.579 374.625 280.63 374.625 281.926V318.842C374.625 320.138 375.676 321.189 376.972 321.189H613.132C614.428 321.189 615.479 320.138 615.479 318.842V281.926C615.479 280.63 614.428 279.579 613.132 279.579Z" fill="#F5F5F5"/>
<path d="M613.132 321.19C613.608 321.153 614.065 320.991 614.459 320.721C614.93 320.371 615.254 319.857 615.365 319.28C615.407 318.466 615.407 317.651 615.365 316.837C615.365 313.082 615.365 307.579 615.284 300.49C615.284 296.946 615.284 292.997 615.284 288.676C615.284 286.524 615.284 284.274 615.284 281.927C615.273 281.382 615.057 280.861 614.679 280.469C614.301 280.076 613.789 279.84 613.245 279.807H609.539H575.293L377.004 279.937C376.503 279.936 376.021 280.13 375.659 280.477C375.297 280.823 375.083 281.297 375.062 281.798V317.403C375.062 317.953 375.062 318.633 375.062 319.021C375.148 319.498 375.4 319.928 375.774 320.235C376.159 320.541 376.644 320.691 377.134 320.656H389.207H441.854L530.997 320.737L591.089 320.883L607.435 320.963L591.089 321.044L530.997 321.174L441.854 321.271H377.118C376.433 321.302 375.76 321.083 375.224 320.656C374.688 320.222 374.33 319.605 374.221 318.924C374.221 318.212 374.221 317.727 374.221 317.112V281.506C374.254 280.789 374.561 280.112 375.079 279.615C375.597 279.118 376.287 278.839 377.004 278.836L575.293 278.966H609.539H613.261C613.921 279.002 614.542 279.289 614.999 279.767C615.456 280.244 615.714 280.878 615.721 281.539C615.721 283.886 615.721 286.135 615.721 288.288C615.721 292.609 615.721 296.558 615.721 300.102C615.721 307.191 615.721 312.693 615.64 316.448C615.684 317.273 615.684 318.099 615.64 318.924C615.54 319.404 615.293 319.842 614.934 320.175C614.574 320.509 614.12 320.722 613.633 320.785C613.498 320.956 613.327 321.094 613.132 321.19Z" fill="#263238"/>
<path d="M613.504 344.025H377.344C376.048 344.025 374.997 345.075 374.997 346.371V383.287C374.997 384.584 376.048 385.634 377.344 385.634H613.504C614.8 385.634 615.85 384.584 615.85 383.287V346.371C615.85 345.075 614.8 344.025 613.504 344.025Z" fill="#FFBC0D"/>
<path d="M393.384 300.635C393.384 301.353 393.171 302.055 392.772 302.651C392.373 303.248 391.806 303.712 391.142 303.986C390.479 304.26 389.749 304.331 389.046 304.19C388.342 304.049 387.696 303.702 387.19 303.193C386.683 302.685 386.339 302.037 386.201 301.333C386.063 300.628 386.137 299.899 386.414 299.237C386.691 298.575 387.158 298.01 387.757 297.613C388.355 297.217 389.057 297.007 389.775 297.01C390.25 297.01 390.721 297.104 391.16 297.286C391.599 297.469 391.997 297.736 392.333 298.073C392.668 298.41 392.934 298.81 393.114 299.249C393.294 299.689 393.386 300.16 393.384 300.635Z" fill="#292929"/>
<path d="M404.778 300.635C404.778 301.352 404.565 302.053 404.167 302.65C403.769 303.246 403.203 303.71 402.54 303.985C401.878 304.259 401.149 304.331 400.446 304.191C399.742 304.051 399.096 303.706 398.589 303.199C398.082 302.692 397.737 302.046 397.597 301.343C397.457 300.639 397.529 299.911 397.804 299.248C398.078 298.586 398.543 298.019 399.139 297.621C399.735 297.223 400.436 297.01 401.153 297.01C402.114 297.01 403.036 297.392 403.716 298.072C404.396 298.752 404.778 299.674 404.778 300.635Z" fill="#292929"/>
<path d="M416.153 300.635C416.153 301.353 415.94 302.055 415.541 302.651C415.142 303.248 414.575 303.712 413.911 303.986C413.248 304.26 412.518 304.331 411.814 304.19C411.111 304.049 410.465 303.702 409.958 303.193C409.452 302.685 409.108 302.037 408.97 301.333C408.832 300.628 408.906 299.899 409.183 299.237C409.46 298.575 409.927 298.01 410.525 297.613C411.124 297.217 411.826 297.007 412.544 297.01C413.019 297.01 413.49 297.104 413.929 297.286C414.368 297.469 414.766 297.736 415.102 298.073C415.437 298.41 415.702 298.81 415.883 299.249C416.063 299.689 416.155 300.16 416.153 300.635Z" fill="#292929"/>
<path d="M427.595 300.635C427.595 301.352 427.383 302.053 426.984 302.65C426.586 303.246 426.02 303.71 425.357 303.985C424.695 304.259 423.966 304.331 423.263 304.191C422.559 304.051 421.914 303.706 421.407 303.199C420.9 302.692 420.554 302.046 420.414 301.343C420.275 300.639 420.346 299.911 420.621 299.248C420.895 298.586 421.36 298.019 421.956 297.621C422.552 297.223 423.253 297.01 423.97 297.01C424.931 297.01 425.854 297.392 426.533 298.072C427.213 298.752 427.595 299.674 427.595 300.635Z" fill="#292929"/>
<path d="M438.926 300.635C438.926 301.352 438.713 302.053 438.315 302.65C437.916 303.246 437.35 303.71 436.688 303.985C436.025 304.259 435.297 304.331 434.593 304.191C433.89 304.051 433.244 303.706 432.737 303.199C432.23 302.692 431.885 302.046 431.745 301.343C431.605 300.639 431.677 299.911 431.951 299.248C432.226 298.586 432.69 298.019 433.286 297.621C433.883 297.223 434.584 297.01 435.301 297.01C435.777 297.01 436.248 297.104 436.688 297.286C437.128 297.468 437.527 297.735 437.864 298.072C438.201 298.409 438.468 298.808 438.65 299.248C438.832 299.688 438.926 300.159 438.926 300.635Z" fill="#292929"/>
<path d="M450.254 300.635C450.254 301.352 450.042 302.053 449.643 302.65C449.245 303.246 448.679 303.71 448.016 303.985C447.354 304.259 446.625 304.331 445.922 304.191C445.218 304.051 444.572 303.706 444.065 303.199C443.558 302.692 443.213 302.046 443.073 301.343C442.933 300.639 443.005 299.911 443.28 299.248C443.554 298.586 444.019 298.019 444.615 297.621C445.211 297.223 445.912 297.01 446.629 297.01C447.59 297.01 448.513 297.392 449.192 298.072C449.872 298.752 450.254 299.674 450.254 300.635Z" fill="#292929"/>
<path d="M461.712 300.635C461.712 301.352 461.499 302.053 461.101 302.65C460.702 303.246 460.136 303.71 459.474 303.985C458.811 304.259 458.082 304.331 457.379 304.191C456.676 304.051 456.03 303.706 455.523 303.199C455.016 302.692 454.671 302.046 454.531 301.343C454.391 300.639 454.463 299.911 454.737 299.248C455.012 298.586 455.476 298.019 456.072 297.621C456.669 297.223 457.369 297.01 458.086 297.01C459.048 297.01 459.97 297.392 460.65 298.072C461.33 298.752 461.712 299.674 461.712 300.635Z" fill="#292929"/>
<path d="M473.092 300.635C473.092 301.353 472.879 302.055 472.479 302.651C472.08 303.248 471.513 303.712 470.85 303.986C470.187 304.26 469.457 304.331 468.753 304.19C468.049 304.049 467.403 303.702 466.897 303.193C466.391 302.685 466.047 302.037 465.909 301.333C465.771 300.628 465.845 299.899 466.122 299.237C466.399 298.575 466.866 298.01 467.464 297.613C468.062 297.217 468.765 297.007 469.483 297.01C469.958 297.01 470.428 297.104 470.867 297.286C471.306 297.469 471.705 297.736 472.04 298.073C472.376 298.41 472.641 298.81 472.822 299.249C473.002 299.689 473.094 300.16 473.092 300.635Z" fill="#292929"/>
<path d="M393.384 245.446C393.384 246.164 393.171 246.865 392.772 247.462C392.373 248.058 391.806 248.523 391.142 248.797C390.479 249.071 389.749 249.142 389.046 249.001C388.342 248.859 387.696 248.512 387.19 248.004C386.683 247.495 386.339 246.848 386.201 246.143C386.063 245.439 386.137 244.71 386.414 244.048C386.691 243.386 387.158 242.82 387.757 242.424C388.355 242.028 389.057 241.818 389.775 241.821C390.25 241.821 390.721 241.915 391.16 242.097C391.599 242.28 391.997 242.547 392.333 242.884C392.668 243.221 392.934 243.62 393.114 244.06C393.294 244.5 393.386 244.971 393.384 245.446Z" fill="#292929"/>
<path d="M404.778 245.446C404.778 246.163 404.565 246.864 404.167 247.46C403.769 248.056 403.203 248.521 402.54 248.795C401.878 249.07 401.149 249.142 400.446 249.002C399.742 248.862 399.096 248.517 398.589 248.01C398.082 247.503 397.737 246.857 397.597 246.153C397.457 245.45 397.529 244.721 397.804 244.059C398.078 243.396 398.543 242.83 399.139 242.432C399.735 242.034 400.436 241.821 401.153 241.821C402.114 241.821 403.036 242.203 403.716 242.883C404.396 243.563 404.778 244.485 404.778 245.446Z" fill="#292929"/>
<path d="M416.153 245.446C416.153 246.164 415.94 246.865 415.541 247.462C415.142 248.058 414.575 248.523 413.911 248.797C413.248 249.071 412.518 249.142 411.814 249.001C411.111 248.859 410.465 248.512 409.958 248.004C409.452 247.495 409.108 246.848 408.97 246.143C408.832 245.439 408.906 244.71 409.183 244.048C409.46 243.386 409.927 242.82 410.525 242.424C411.124 242.028 411.826 241.818 412.544 241.821C413.019 241.821 413.49 241.915 413.929 242.097C414.368 242.28 414.766 242.547 415.102 242.884C415.437 243.221 415.702 243.62 415.883 244.06C416.063 244.5 416.155 244.971 416.153 245.446Z" fill="#292929"/>
<path d="M427.595 245.446C427.595 246.163 427.383 246.864 426.984 247.46C426.586 248.056 426.02 248.521 425.357 248.795C424.695 249.07 423.966 249.142 423.263 249.002C422.559 248.862 421.914 248.517 421.407 248.01C420.9 247.503 420.554 246.857 420.414 246.153C420.275 245.45 420.346 244.721 420.621 244.059C420.895 243.396 421.36 242.83 421.956 242.432C422.552 242.034 423.253 241.821 423.97 241.821C424.931 241.821 425.854 242.203 426.533 242.883C427.213 243.563 427.595 244.485 427.595 245.446Z" fill="#292929"/>
<path d="M438.926 245.446C438.926 246.163 438.713 246.864 438.315 247.46C437.916 248.056 437.35 248.521 436.688 248.795C436.025 249.07 435.297 249.142 434.593 249.002C433.89 248.862 433.244 248.517 432.737 248.01C432.23 247.503 431.885 246.857 431.745 246.153C431.605 245.45 431.677 244.721 431.951 244.059C432.226 243.396 432.69 242.83 433.286 242.432C433.883 242.034 434.584 241.821 435.301 241.821C435.777 241.821 436.248 241.915 436.688 242.097C437.128 242.279 437.527 242.546 437.864 242.883C438.201 243.219 438.468 243.619 438.65 244.059C438.832 244.499 438.926 244.97 438.926 245.446Z" fill="#292929"/>
<path d="M450.254 245.446C450.254 246.163 450.042 246.864 449.643 247.46C449.245 248.056 448.679 248.521 448.016 248.795C447.354 249.07 446.625 249.142 445.922 249.002C445.218 248.862 444.572 248.517 444.065 248.01C443.558 247.503 443.213 246.857 443.073 246.153C442.933 245.45 443.005 244.721 443.28 244.059C443.554 243.396 444.019 242.83 444.615 242.432C445.211 242.034 445.912 241.821 446.629 241.821C447.59 241.821 448.513 242.203 449.192 242.883C449.872 243.563 450.254 244.485 450.254 245.446Z" fill="#292929"/>
<path d="M461.712 245.446C461.712 246.163 461.499 246.864 461.101 247.46C460.702 248.056 460.136 248.521 459.474 248.795C458.811 249.07 458.082 249.142 457.379 249.002C456.676 248.862 456.03 248.517 455.523 248.01C455.016 247.503 454.671 246.857 454.531 246.153C454.391 245.45 454.463 244.721 454.737 244.059C455.012 243.396 455.476 242.83 456.072 242.432C456.669 242.034 457.369 241.821 458.086 241.821C459.048 241.821 459.97 242.203 460.65 242.883C461.33 243.563 461.712 244.485 461.712 245.446Z" fill="#292929"/>
<path d="M473.092 245.446C473.092 246.164 472.879 246.865 472.479 247.462C472.08 248.058 471.513 248.523 470.85 248.797C470.187 249.071 469.457 249.142 468.753 249.001C468.049 248.859 467.403 248.512 466.897 248.004C466.391 247.495 466.047 246.848 465.909 246.143C465.771 245.439 465.845 244.71 466.122 244.048C466.399 243.386 466.866 242.82 467.464 242.424C468.062 242.028 468.765 241.818 469.483 241.821C469.958 241.821 470.428 241.915 470.867 242.097C471.306 242.28 471.705 242.547 472.04 242.884C472.376 243.221 472.641 243.62 472.822 244.06C473.002 244.5 473.094 244.971 473.092 245.446Z" fill="#292929"/>
<path fill-rule="evenodd" clip-rule="evenodd" d="M496.506 104.265C501.009 104.265 504.659 123.237 504.659 146.639H511.185C511.185 121.435 504.612 101.005 496.506 101.005C491.893 101.005 487.779 107.147 485.088 116.747C482.398 107.147 478.284 101.005 473.671 101.005C465.567 101.005 458.991 121.435 458.991 146.639H465.518C465.518 123.237 469.17 104.265 473.671 104.265C478.175 104.265 481.826 121.777 481.826 143.379H488.351C488.351 121.777 492.002 104.265 496.506 104.265Z" fill="#FFBC0D"/>
<path d="M99.2496 452.179L91.2725 520.532H103.52L125.449 452.179H99.2496Z" fill="#D6D6D6"/>
<path d="M143.589 426.822L135.371 494.073H147.997L170.65 426.822H143.589Z" fill="#D6D6D6"/>
<path d="M310.735 452.179L319.484 520.532H306.045L282 452.179H310.735Z" fill="#D6D6D6"/>
<path d="M268.84 429.027L277.59 496.278H264.166L240.105 429.027H268.84Z" fill="#E0E0E0"/>
<path d="M136.118 201.869C136.118 201.869 102.343 204.246 79.6948 215.862C61.9235 224.991 53.2747 237.787 49.7078 269.959C46.1409 302.131 23.5402 308.726 22.9562 319.744C22.388 330.494 27.912 376.407 67.6211 468.374C68.5148 470.44 69.9953 472.199 71.88 473.435C73.7647 474.672 75.9711 475.331 78.227 475.331H215.852V199.713L136.118 201.869Z" fill="#D6D6D6"/>
<path d="M266.968 201.87C266.968 201.87 300.729 204.247 323.368 215.865C341.132 224.995 349.777 237.794 353.342 269.971C356.908 302.149 379.499 308.745 380.083 319.764C380.651 330.548 375.098 376.768 335.042 469.317C334.266 471.104 332.984 472.626 331.352 473.694C329.721 474.763 327.812 475.332 325.86 475.331H187.188V199.713L266.968 201.87Z" fill="#D6D6D6"/>
<path d="M300.742 429.596C301.54 429.377 302.356 429.226 303.181 429.146C305.434 428.915 307.71 429.02 309.931 429.456C313.268 430.15 316.323 431.8 318.711 434.199C321.529 437.192 323.636 440.765 324.879 444.66C326.161 448.493 327.041 452.445 327.507 456.454C327.979 460.142 328.168 463.475 328.262 466.28C328.356 469.085 328.262 471.348 328.262 472.913C328.296 473.722 328.244 474.532 328.105 475.331C327.986 474.53 327.934 473.722 327.947 472.913C327.947 471.363 327.806 469.085 327.648 466.311C327.491 463.537 327.239 460.205 326.736 456.562C326.225 452.609 325.335 448.712 324.077 444.923C322.874 441.141 320.85 437.661 318.145 434.726C315.864 432.418 312.959 430.804 309.774 430.076C306.802 429.493 303.761 429.332 300.742 429.596Z" fill="#6F6F6F"/>
<path d="M313.972 390.992C313.972 391.31 263.119 391.543 200.425 391.543C137.731 391.543 86.8623 391.31 86.8623 390.992C86.8623 390.674 137.699 390.44 200.425 390.44C263.15 390.44 313.972 390.695 313.972 390.992Z" fill="#263238"/>
<path d="M96.7847 428.037C96.0131 428.182 95.2311 428.27 94.4458 428.298C93.6924 428.298 92.7976 428.575 91.7459 428.729C91.2279 428.821 90.6942 429.021 90.1762 429.16C89.5545 429.31 88.9497 429.522 88.371 429.791C85.4791 430.94 82.9344 432.793 80.9776 435.176C78.6076 438.153 76.9065 441.588 75.9858 445.255C75.0531 448.922 74.5268 452.678 74.4161 456.456C74.2972 459.534 74.3496 462.616 74.5731 465.688C74.7614 468.335 75.0126 470.458 75.201 471.935C75.3338 472.694 75.4177 473.46 75.4521 474.228C75.1713 473.505 74.9816 472.75 74.887 471.982C74.6045 470.52 74.2591 468.397 74.008 465.735C73.6875 462.632 73.5722 459.512 73.6626 456.395C73.7425 452.553 74.2692 448.733 75.2324 445.008C76.1451 441.242 77.8803 437.714 80.3183 434.668C82.3982 432.202 85.1057 430.318 88.1669 429.206C88.7687 428.956 89.3944 428.765 90.0349 428.637C90.5921 428.477 91.1581 428.349 91.7302 428.252C92.7976 428.129 93.7238 427.944 94.4929 427.944C95.2581 427.899 96.0259 427.93 96.7847 428.037Z" fill="#6F6F6F"/>
<path d="M96.7846 427.925C96.7196 427.809 96.667 427.688 96.6278 427.561C96.518 427.261 96.3768 426.898 96.22 426.456C95.8592 425.477 95.3416 424.041 94.7926 422.146C93.6162 418.389 92.1262 412.894 90.3537 406.09C88.5813 399.285 86.5266 391.154 84.2366 382.171C81.9465 373.187 79.3428 363.225 76.2528 353.026C74.6843 347.926 73.1158 342.921 71.0768 338.296C70.6241 337.138 70.1002 336.009 69.5083 334.917C68.975 333.827 68.3789 332.754 67.7672 331.759C66.5595 329.644 65.3988 327.575 64.2067 325.602C62.0804 321.797 59.1906 318.48 55.7211 315.861C52.5757 313.75 48.9912 312.394 45.2434 311.898C39.7946 311.113 34.2366 311.919 29.2289 314.219C27.4097 315.095 25.6677 316.125 24.0215 317.297C24.0215 317.297 24.1156 317.187 24.3038 317.029L25.2292 316.287C26.434 315.375 27.7267 314.587 29.0878 313.934C34.1284 311.483 39.7723 310.571 45.3218 311.314C49.1694 311.79 52.8564 313.152 56.0975 315.292C59.6737 317.938 62.6515 321.317 64.8341 325.207C66.0732 327.181 67.2339 329.265 68.4417 331.365C69.0534 332.407 69.6651 333.48 70.2141 334.617C70.8027 335.727 71.3264 336.871 71.7826 338.043C73.7676 342.882 75.5057 347.819 76.99 352.836C80.1271 363.13 82.6524 373.029 84.9267 382.044C87.201 391.059 89.2087 399.048 90.9027 405.947C92.5967 412.847 94.0397 418.278 95.0906 422.051C95.6082 423.962 96.0631 425.414 96.3611 426.393L96.7062 427.53C96.75 427.657 96.7764 427.79 96.7846 427.925Z" fill="#6F6F6F"/>
<path d="M275.113 360.491C275.113 360.491 274.643 360.491 273.718 360.491H269.596H253.748H195.5L155.278 360.411L132.941 360.285C129.085 360.285 125.182 360.285 121.248 360.491C120.285 360.527 119.327 360.632 118.379 360.808C117.461 361.156 116.57 361.575 115.715 362.06C113.959 363.011 112.25 364.073 110.542 365.23C107.125 367.433 103.755 369.826 100.463 372.378C97.1049 374.915 93.9256 377.684 90.9482 380.668C89.4292 382.131 88.1395 383.82 87.1235 385.676C86.9205 386.122 86.7933 386.598 86.7473 387.087C86.8055 387.596 86.9051 388.1 87.0451 388.593L87.8132 391.762C88.8477 396.026 89.9607 400.306 91.0736 404.633C92.1865 408.96 93.3935 413.303 94.5691 417.693C95.1961 419.88 95.8074 422.068 96.4344 424.271C96.7636 425.364 97.0928 426.458 97.469 427.441C97.469 427.583 97.563 427.631 97.5943 427.742C97.6257 427.853 97.5943 427.853 97.5943 427.853C97.5943 427.853 98.1116 427.932 98.3938 427.948C98.9424 427.948 99.5224 428.043 100.087 428.075C109.194 428.518 118.473 428.598 127.847 428.756C165.373 429.2 201.127 429.248 233.653 429.168C249.908 429.168 265.363 429.026 279.816 428.836C287.042 428.725 294.017 428.614 300.726 428.36C302.403 428.36 304.065 428.217 305.679 428.091L306.902 427.98C307.106 427.98 307.278 427.98 307.466 427.884C307.615 427.863 307.75 427.783 307.843 427.663C308.326 427.062 308.702 426.381 308.955 425.65C310.025 422.7 310.92 419.688 311.636 416.631C313.203 410.608 314.363 404.823 315.492 399.339C315.774 397.96 316.056 396.613 316.323 395.281C316.667 394.015 316.852 392.711 316.871 391.398C316.36 388.931 315.176 386.658 313.454 384.836C310.414 381.445 307.06 378.356 303.438 375.611C300.146 372.996 297.058 370.73 294.284 368.669C291.933 366.724 289.427 364.98 286.791 363.455C284.803 362.441 282.696 361.685 280.521 361.204C279.185 360.904 277.827 360.708 276.461 360.617H275.411H275.051C275.051 360.617 275.536 360.617 276.461 360.617C277.837 360.664 279.206 360.833 280.552 361.125C282.728 361.581 284.836 362.322 286.822 363.328C289.495 364.816 292.029 366.546 294.393 368.495C297.184 370.539 300.287 372.79 303.61 375.374C307.261 378.124 310.647 381.218 313.721 384.614C315.512 386.506 316.745 388.867 317.279 391.43C317.278 392.79 317.098 394.143 316.746 395.456C316.479 396.803 316.197 398.15 315.931 399.513C314.802 405.013 313.611 410.814 312.122 416.853C311.388 419.959 310.472 423.018 309.379 426.014C309.096 426.829 308.671 427.586 308.125 428.249C307.954 428.447 307.722 428.581 307.466 428.629C307.26 428.682 307.051 428.719 306.839 428.74L305.601 428.867C303.955 428.994 302.294 429.073 300.616 429.137C293.892 429.406 286.916 429.533 279.675 429.66C265.222 429.882 249.767 430.008 233.512 430.072C200.986 430.183 165.232 430.167 127.69 429.723C118.285 429.565 109.037 429.485 99.8986 429.042C99.3186 429.042 98.7543 429.042 98.1743 428.915L97.2809 428.788C97.1452 428.749 97.0138 428.696 96.889 428.629C96.7949 428.55 96.7949 428.455 96.7322 428.376C96.6426 428.22 96.5691 428.055 96.5128 427.884C96.1052 426.775 95.7761 425.681 95.4626 424.588C94.8356 422.385 94.2086 420.181 93.5972 417.994L90.1017 404.918C88.9731 400.591 87.8759 396.296 86.8413 392.032L86.0733 388.862C85.9107 388.304 85.8057 387.73 85.7598 387.15C85.8019 386.55 85.9562 385.964 86.2143 385.423C87.2618 383.483 88.5995 381.719 90.1801 380.192C93.1955 377.195 96.4055 374.404 99.7888 371.839C103.112 369.287 106.482 366.894 109.931 364.675C111.655 363.565 113.379 362.504 115.166 361.505C116.057 361.002 116.985 360.568 117.94 360.205C118.973 359.995 120.022 359.878 121.075 359.857C125.104 359.571 129.023 359.571 132.941 359.571L155.341 359.761L195.563 359.936L253.827 360.269L269.658 360.395H273.781L275.113 360.491Z" fill="#6F6F6F"/>
<path d="M309.562 427.925C309.57 427.791 309.596 427.66 309.64 427.533C309.734 427.236 309.828 426.86 309.969 426.422C310.252 425.435 310.706 423.995 311.145 422.117C312.149 418.375 313.325 412.896 314.721 406.102C316.117 399.307 317.717 391.198 319.504 382.212C321.292 373.226 323.378 363.426 326.091 353.109C327.377 348.102 328.979 343.182 330.89 338.378C331.408 337.22 332.004 336.124 332.552 335.012C333.101 333.901 333.791 332.899 334.434 331.881C335.694 329.884 337.06 327.955 338.528 326.104C341.209 322.623 344.479 319.635 348.188 317.275C351.462 315.262 355.131 313.975 358.947 313.502C364.466 312.793 370.073 313.701 375.084 316.117C376.43 316.782 377.715 317.562 378.926 318.449L379.836 319.169C380.024 319.342 380.134 319.435 380.118 319.451C378.484 318.265 376.753 317.218 374.943 316.32C369.964 314.059 364.445 313.251 359.025 313.987C355.299 314.498 351.724 315.789 348.533 317.776C344.918 320.121 341.735 323.071 339.124 326.496C337.678 328.332 336.333 330.245 335.093 332.226C334.466 333.243 333.791 334.261 333.242 335.357C332.694 336.452 332.129 337.517 331.674 338.644C329.805 343.416 328.233 348.3 326.969 353.266C324.272 363.489 322.265 373.351 320.336 382.322C318.407 391.292 316.854 399.386 315.38 406.164C313.906 412.943 312.635 418.422 311.553 422.148C311.051 424.027 310.55 425.451 310.22 426.422C310.048 426.86 309.922 427.22 309.812 427.518C309.747 427.664 309.663 427.801 309.562 427.925Z" fill="#6F6F6F"/>
<path d="M312.864 225.069C313.079 225.069 306.102 255.522 297.273 292.974C288.445 330.425 281.116 360.752 280.902 360.673C280.688 360.594 287.665 330.22 296.493 292.769C305.321 255.317 312.65 225.022 312.864 225.069Z" fill="#6F6F6F"/>
<path d="M87.9648 234.992C88.1524 235.397 88.3031 235.818 88.4151 236.251C88.6791 237.149 89.0518 238.345 89.5176 239.873C90.4803 243.116 91.8157 247.667 93.4617 253.257C96.738 264.578 101.226 280.245 105.884 297.596C110.542 314.948 114.719 330.662 117.638 342.125C119.051 347.794 120.201 352.391 121.023 355.666C121.381 357.241 121.676 358.453 121.893 359.367C122.013 359.794 122.096 360.231 122.141 360.674C121.97 360.261 121.835 359.834 121.738 359.398C121.474 358.501 121.148 357.288 120.713 355.745C119.828 352.486 118.601 347.872 117.079 342.283C113.974 330.835 109.766 315.153 105.108 297.817L92.9182 253.414L89.2381 239.967C88.8344 238.393 88.5083 237.196 88.2599 236.299C88.1276 235.872 88.0289 235.435 87.9648 234.992Z" fill="#6F6F6F"/>
<path d="M149.706 52.4051C149.904 50.1028 150.9 47.947 152.518 46.3231C154.135 44.6992 156.268 43.713 158.535 43.5407C155.878 39.1085 158.097 32.7065 162.613 30.2759C164.935 29.1731 167.529 28.8016 170.06 29.2093C172.592 29.617 174.945 30.7851 176.818 32.5635C177.944 30.6666 179.658 29.2033 181.69 28.4029C183.723 27.6025 185.959 27.5103 188.048 28.1408C190.137 28.7713 191.962 30.0888 193.236 31.8868C194.509 33.6848 195.16 35.8616 195.086 38.0759C199.227 36.7256 203.915 40.1888 204.727 44.5415C205.012 46.7396 204.681 48.9749 203.772 50.99C202.862 53.0051 201.411 54.7181 199.586 55.9318C201.696 57.5204 201.477 61.1107 199.758 63.16C197.85 65.0702 195.359 66.2635 192.695 66.5437L176.224 71.516C172.271 73.7559 167.411 74.8997 163.192 73.2476C158.972 71.5954 155.925 66.5278 157.519 62.2227C155.283 61.7939 153.27 60.5711 151.839 58.7728C150.408 56.9745 149.652 54.7176 149.706 52.4051Z" fill="#292929"/>
<path d="M149.703 49.9829C149.874 49.7791 150.071 49.5975 150.288 49.4425C150.922 48.9794 151.634 48.6292 152.392 48.408C153.605 48.0601 154.887 48.0071 156.125 48.2536C157.81 48.5518 159.331 49.428 160.412 50.724L159.922 50.8784C160.077 48.6717 161.004 46.584 162.548 44.9648C164.321 43.059 166.661 41.7418 169.239 41.1974C172.124 40.6767 175.103 41.0045 177.797 42.1392C180.691 43.3325 183.282 45.1295 185.389 47.4043C186.457 48.5092 187.257 49.8335 187.73 51.2799C187.954 52.0121 188.009 52.7835 187.891 53.5389C187.773 54.2942 187.486 55.0149 187.05 55.6494C186.641 56.3162 186.042 56.8526 185.326 57.1935C184.613 57.515 183.806 57.5806 183.048 57.3787C182.338 57.1791 181.692 56.8022 181.177 56.285C180.661 55.7679 180.292 55.1284 180.106 54.4297C179.951 53.776 179.937 53.0979 180.065 52.4387C180.193 51.7794 180.46 51.1534 180.85 50.6005C181.558 49.5618 182.565 48.7507 183.744 48.269C185.818 47.4795 188.083 47.297 190.261 47.744C193.401 48.3061 196.27 49.8444 198.44 52.1291C199.037 52.7371 199.567 53.4047 200.021 54.1208C200.19 54.3588 200.323 54.6187 200.417 54.8929C199.751 53.9995 199.027 53.1486 198.25 52.3452C196.056 50.2199 193.245 48.8072 190.198 48.2999C188.133 47.9163 185.999 48.1145 184.045 48.8712C183 49.3067 182.113 50.0382 181.498 50.971C181.168 51.4449 180.941 51.9801 180.832 52.5433C180.723 53.1066 180.735 53.6856 180.865 54.2444C181.025 54.8095 181.33 55.3257 181.751 55.7443C182.171 56.1629 182.694 56.4704 183.27 56.6376C183.877 56.7684 184.51 56.7071 185.079 56.4628C185.648 56.2186 186.122 55.8039 186.433 55.2789C186.803 54.7375 187.044 54.1228 187.14 53.4792C187.235 52.8356 187.183 52.1793 186.987 51.5578C186.542 50.2326 185.802 49.0199 184.82 48.0065C180.691 43.5443 174.649 40.9349 169.429 41.9848C167.003 42.4778 164.793 43.6913 163.101 45.4589C161.632 46.9595 160.728 48.9032 160.539 50.971V51.6813L160.096 51.1254C159.115 49.8967 157.719 49.0484 156.157 48.7322C154.987 48.4581 153.768 48.4581 152.598 48.7322C151.568 48.988 150.59 49.4107 149.703 49.9829Z" fill="#6F6F6F"/>
<path d="M165.138 66.99C165.106 67.1379 165.047 67.2785 164.963 67.4046C164.745 67.7929 164.453 68.1343 164.103 68.4092C163.535 68.8586 162.869 69.1648 162.159 69.3022C161.174 69.4899 160.155 69.3143 159.291 68.8078L157.697 67.867L159.418 68.3932L161.235 68.9354L163.497 69.6211L161.139 69.4457C160.273 69.3742 159.446 69.0565 158.754 68.53C158.063 68.0034 157.536 67.29 157.236 66.4738C156.936 65.6577 156.876 64.7727 157.062 63.9233C157.248 63.0739 157.673 62.2955 158.287 61.6798L158.829 62.1263C157.759 63.6191 156.293 64.7823 154.597 65.4844C152.901 66.1865 151.043 66.3995 149.232 66.0991C147.421 65.7987 145.731 64.9971 144.352 63.7849C142.973 62.5727 141.961 60.9983 141.429 59.2401C140.975 57.9758 140.802 56.6279 140.92 55.2896C141.038 53.9514 141.446 52.655 142.115 51.4902C142.747 50.3425 143.807 49.492 145.064 49.1245C146.321 48.757 147.672 48.9024 148.823 49.5288L148.36 50.1507C146.979 48.9284 146.137 47.2085 146.018 45.3668C145.859 43.7247 146.234 42.075 147.086 40.6627C147.846 39.4022 149.033 38.4571 150.432 37.9996C151.61 37.6184 152.867 37.547 154.08 37.7923C155.789 38.1054 157.33 39.0152 158.43 40.3597C158.82 40.8263 159.108 41.3696 159.275 41.9543C159.275 41.9543 158.988 41.3802 158.239 40.5191C157.121 39.3 155.62 38.5008 153.985 38.2548C152.859 38.064 151.704 38.1572 150.623 38.5259C149.366 38.9727 148.305 39.8475 147.628 40.9975C146.885 42.3032 146.567 43.8083 146.719 45.303C146.859 46.9393 147.624 48.4586 148.854 49.5447L148.392 50.1507C147.416 49.6535 146.284 49.5586 145.239 49.8865C144.193 50.2143 143.318 50.9388 142.8 51.9048C142.205 52.9699 141.846 54.1504 141.747 55.3665C141.648 56.5825 141.812 57.8057 142.226 58.953C142.754 60.6566 143.768 62.1683 145.144 63.3017C146.52 64.4352 148.198 65.1408 149.97 65.3315C151.549 65.4835 153.141 65.2259 154.592 64.5835C156.043 63.9412 157.305 62.9357 158.255 61.6639L158.781 62.1104C158.218 62.6834 157.84 63.412 157.695 64.2022C157.55 64.9924 157.645 65.8079 157.968 66.5435C158.261 67.1666 158.707 67.7054 159.264 68.1097C159.822 68.514 160.472 68.7706 161.155 68.8557L161.043 69.366L159.243 68.76L159.45 68.3454C160.205 68.8314 161.114 69.0189 161.999 68.8716C162.668 68.7804 163.306 68.5347 163.864 68.154C164.337 67.8224 164.765 67.4312 165.138 66.99Z" fill="#263238"/>
<path d="M211.658 57.4939C212.163 56.8377 212.626 56.149 213.042 55.4321C214.093 53.4536 214.434 51.1675 214.006 48.9633C213.547 46.8943 212.389 45.0527 210.73 43.7566C209.072 42.4605 207.019 41.7914 204.926 41.8649C204.481 41.8431 204.037 41.9238 203.627 42.101C203.218 42.2783 202.854 42.5473 202.562 42.888C202.424 43.0398 202.323 43.223 202.269 43.4223C202.215 43.6215 202.21 43.831 202.252 44.033C202.295 44.2351 202.385 44.4238 202.514 44.5833C202.644 44.7429 202.81 44.8685 202.997 44.9498C203.934 45.2432 204.946 45.1644 205.827 44.7295C206.771 44.3628 207.632 43.8091 208.361 43.101C209.09 42.3929 209.672 41.5446 210.072 40.6058C210.413 39.7256 210.554 38.779 210.484 37.8363C210.414 36.8935 210.135 35.9788 209.668 35.1601C208.86 33.7368 207.693 32.5567 206.285 31.7408C204.878 30.9249 203.282 30.5025 201.66 30.517C199.436 30.5339 197.284 31.3228 195.565 32.752C194.352 33.775 193.886 34.562 193.823 34.499C193.761 34.4361 193.823 34.2944 194.134 33.9324C194.49 33.4153 194.902 32.9402 195.363 32.5159C197.084 30.9117 199.321 29.9945 201.66 29.9347C203.277 29.898 204.878 30.2599 206.325 30.9892C208.013 31.8103 209.412 33.1337 210.337 34.7823C210.872 35.6983 211.194 36.726 211.278 37.7871C211.361 38.8482 211.204 39.9146 210.819 40.9049C210.387 41.9456 209.751 42.8867 208.949 43.6712C208.147 44.4558 207.196 45.0675 206.154 45.4692C205.074 45.9877 203.838 46.0666 202.702 45.6896C202.398 45.5615 202.129 45.3595 201.92 45.1014C201.712 44.8434 201.569 44.5373 201.505 44.2101C201.455 43.8967 201.468 43.5765 201.543 43.2684C201.618 42.9602 201.753 42.6703 201.94 42.4158C202.301 41.9767 202.756 41.6267 203.271 41.3921C203.785 41.1576 204.346 41.0448 204.91 41.0622C207.171 40.9942 209.383 41.7371 211.156 43.1598C212.928 44.5825 214.147 46.5934 214.597 48.8374C215.014 51.1632 214.565 53.5628 213.338 55.5737C213.017 56.1142 212.636 56.6159 212.203 57.069C212.039 57.2332 211.857 57.376 211.658 57.4939Z" fill="#263238"/>
<path d="M162.446 70.7933C164.318 67.1769 169.461 66.7148 173.173 68.3239C173.003 66.9167 173.237 65.4897 173.845 64.213C174.454 62.9363 175.412 61.8637 176.606 61.1233C177.799 60.3828 179.178 60.0056 180.577 60.0366C181.976 60.0676 183.337 60.5055 184.498 61.2982C185.379 61.9036 186.259 62.7479 187.329 62.6683C188.399 62.5886 189.216 61.5531 190.019 60.7725C190.745 60.0408 191.615 59.4703 192.571 59.097C193.527 58.7238 194.55 58.556 195.573 58.6043C196.597 58.6526 197.6 58.9161 198.517 59.3778C199.435 59.8395 200.248 60.4895 200.905 61.2865C201.561 62.0834 202.047 63.01 202.332 64.0073C202.616 65.0046 202.692 66.0508 202.556 67.0796C202.42 68.1084 202.074 69.0973 201.54 69.9834C201.006 70.8695 200.296 71.6336 199.456 72.2271L198.952 70.2357C192.693 76.2282 184.762 80.1221 176.24 81.3876C172.7 82.1578 169.006 81.6859 165.765 80.0493C162.698 78.2332 160.779 74.0114 162.446 70.7933Z" fill="#B69A81"/>
<path d="M153.943 102.153C152.459 99.8347 151.718 97.105 151.824 94.3405C151.929 91.5761 152.876 88.9131 154.533 86.7188C155.868 85.0597 157.592 83.7682 159.547 82.9629C159.751 79.5555 161.012 76.3015 163.148 73.6676C166.407 69.959 172.663 68.7438 176.233 72.0895C176.958 70.6496 177.96 69.3725 179.179 68.3336C180.399 67.2947 181.811 66.5152 183.332 66.0413C184.854 65.5675 186.453 65.4088 188.036 65.5749C189.618 65.7409 191.152 66.2282 192.546 67.0078C197.203 61.3897 207.183 61.7526 211.498 67.6864C212.918 66.7047 214.588 66.1666 216.305 66.1382C218.021 66.1099 219.709 66.5925 221.159 67.5268C222.609 68.461 223.759 69.8061 224.466 71.3963C225.174 72.9865 225.409 74.7525 225.142 76.4767C226.81 76.1964 228.522 76.3689 230.104 76.9767C231.686 77.5845 233.082 78.6061 234.152 79.9382C235.221 81.2704 235.926 82.8659 236.194 84.5636C236.463 86.2613 236.286 88.0009 235.681 89.6068C237.082 89.7001 238.424 90.2139 239.537 91.0831C240.651 91.9523 241.485 93.1378 241.936 94.4896C242.386 95.8413 242.432 97.2986 242.067 98.6768C241.703 100.055 240.944 101.292 239.888 102.232C240.743 103.33 241.368 104.594 241.724 105.946C242.081 107.299 242.161 108.711 241.961 110.096C241.76 111.482 241.283 112.811 240.558 114.001C239.833 115.192 238.876 116.219 237.746 117.019C238.161 119.072 237.819 121.207 236.786 123.02C235.753 124.833 234.1 126.197 232.142 126.851L173.454 144.589C163.598 143.879 160.928 137.361 160.524 131.301C159.294 130.861 158.172 130.154 157.235 129.23C156.299 128.307 155.571 127.188 155.1 125.951C154.63 124.713 154.428 123.387 154.51 122.063C154.591 120.74 154.954 119.449 155.573 118.282C154.255 117.448 153.144 116.317 152.326 114.977C151.507 113.636 151.003 112.122 150.853 110.552C150.703 108.981 150.911 107.397 151.46 105.921C152.009 104.446 152.886 103.118 154.021 102.043L153.943 102.153Z" fill="#292929"/>
<path d="M176.566 88.706L212.891 80.6837C224.483 79.8045 231.688 94.2793 232.143 105.912C232.581 118.849 232.597 134.642 230.796 144.234C227.161 163.45 212.28 165.46 212.28 165.46C212.28 165.46 212.28 165.743 211.951 171.488L211.685 180.908C211.641 184.687 210.277 188.331 207.832 191.207C202.114 197.675 192.481 197.926 181.484 192.965C175.109 190.092 175.5 186.466 174.717 177.548L169.548 93.2431C170.325 92.0272 171.354 90.9928 172.565 90.21C173.775 89.4272 175.14 88.9143 176.566 88.706Z" fill="#E9B3A8"/>
<path d="M224.672 123.583C224.658 124.186 224.361 124.761 223.846 125.184C223.331 125.606 222.637 125.843 221.915 125.843C221.564 125.861 221.212 125.819 220.881 125.719C220.549 125.62 220.245 125.465 219.988 125.265C219.73 125.065 219.524 124.822 219.381 124.553C219.239 124.284 219.163 123.994 219.159 123.699C219.173 123.099 219.467 122.526 219.978 122.104C220.49 121.682 221.179 121.443 221.898 121.439C222.249 121.426 222.6 121.471 222.93 121.571C223.26 121.672 223.563 121.827 223.821 122.026C224.079 122.225 224.288 122.466 224.433 122.733C224.579 123 224.66 123.289 224.672 123.583Z" fill="#292929"/>
<path d="M201.519 123.028C201.506 123.777 201.212 124.49 200.7 125.017C200.188 125.543 199.499 125.84 198.78 125.844C198.429 125.861 198.078 125.806 197.748 125.68C197.418 125.555 197.115 125.362 196.857 125.113C196.599 124.865 196.391 124.565 196.245 124.232C196.099 123.899 196.018 123.539 196.007 123.173C196.02 122.423 196.314 121.707 196.825 121.178C197.336 120.649 198.025 120.348 198.746 120.339C199.099 120.319 199.452 120.374 199.784 120.5C200.117 120.625 200.421 120.819 200.68 121.07C200.939 121.321 201.147 121.624 201.291 121.96C201.435 122.297 201.513 122.66 201.519 123.028Z" fill="#292929"/>
<path d="M209.859 134.461C211.334 134.066 212.856 133.849 214.389 133.815C215.106 133.815 215.774 133.661 215.904 133.199C215.988 132.509 215.846 131.811 215.497 131.2C214.877 129.569 214.242 127.846 213.558 126.062C210.869 118.725 208.946 112.711 209.272 112.618C209.598 112.526 212.01 118.371 214.698 125.693C215.334 127.508 215.953 129.231 216.539 130.877C216.961 131.694 217.065 132.625 216.833 133.507C216.721 133.741 216.554 133.949 216.345 134.114C216.137 134.279 215.891 134.398 215.627 134.461C215.231 134.542 214.827 134.584 214.421 134.584C212.901 134.726 211.368 134.685 209.859 134.461Z" fill="#292929"/>
<path d="M211.442 165.86C202.842 165.734 194.443 162.95 187.188 157.819C187.188 157.819 192.855 172.207 211.176 170.974L211.442 165.86Z" fill="#ECA596"/>
<path d="M201.013 135.77C201.504 135.77 201.434 138.615 204.151 140.703C206.868 142.791 210.321 142.543 210.339 142.946C210.356 143.348 209.55 143.487 208.095 143.487C206.168 143.491 204.303 142.888 202.836 141.786C201.452 140.739 200.584 139.258 200.417 137.657C200.417 136.45 200.785 135.754 201.013 135.77Z" fill="#292929"/>
<path d="M202.609 112.044C202.374 112.692 199.7 112.458 196.589 112.871C193.477 113.284 190.975 114.084 190.538 113.532C190.35 113.257 190.772 112.651 191.773 112.003C193.099 111.203 194.62 110.688 196.213 110.501C197.789 110.307 199.394 110.434 200.904 110.873C202.124 111.259 202.718 111.741 202.609 112.044Z" fill="#292929"/>
<path d="M227.899 114.602C227.306 115.187 225.117 114.444 222.453 114.27C219.789 114.096 217.498 114.428 217.006 113.764C216.803 113.448 217.193 112.847 218.211 112.326C219.602 111.68 221.16 111.411 222.707 111.551C224.258 111.645 225.747 112.149 227 113.005C227.899 113.669 228.12 114.317 227.899 114.602Z" fill="#292929"/>
<path d="M173.952 123.183C173.991 122.588 173.814 122 173.455 121.526C173.096 121.052 172.579 120.724 171.999 120.602C168.923 119.937 163.508 119.937 162.97 127.679C162.216 138.388 173.075 136.951 173.122 136.626C173.168 136.302 173.706 127.277 173.952 123.183Z" fill="#E9B3A8"/>
<path d="M170.65 133.641C170.65 133.641 170.452 133.767 170.133 133.912C169.689 134.125 169.193 134.125 168.749 133.912C168.1 133.341 167.591 132.575 167.273 131.694C166.955 130.813 166.84 129.847 166.94 128.896C166.971 127.818 167.21 126.762 167.639 125.811C167.765 125.423 167.969 125.078 168.235 124.807C168.5 124.536 168.818 124.348 169.16 124.259C169.375 124.211 169.597 124.254 169.788 124.379C169.979 124.504 170.128 124.704 170.209 124.945C170.331 125.305 170.209 125.558 170.3 125.576C170.392 125.594 170.544 125.378 170.483 124.854C170.439 124.544 170.311 124.259 170.118 124.042C169.846 123.76 169.49 123.618 169.129 123.645C168.688 123.714 168.269 123.916 167.912 124.232C167.555 124.548 167.273 124.967 167.092 125.45C166.572 126.497 166.279 127.681 166.24 128.896C166.24 131.422 167.107 133.876 168.612 134.525C168.888 134.645 169.183 134.69 169.476 134.656C169.768 134.621 170.05 134.509 170.3 134.327C170.528 134.002 170.65 133.731 170.65 133.641Z" fill="#ECA596"/>
<path d="M236.164 112.616C235.148 112.636 234.14 112.422 233.216 111.99C232.292 111.558 231.475 110.92 230.827 110.123C230.178 109.325 229.714 108.389 229.469 107.384C229.225 106.379 229.206 105.331 229.413 104.317C228.315 104.34 227.226 104.102 226.234 103.62C225.241 103.139 224.374 102.427 223.699 101.543C223.025 100.659 222.563 99.627 222.351 98.5288C222.138 97.4306 222.18 96.297 222.474 95.2184C221.29 95.809 219.99 96.1199 218.672 96.1278C217.354 96.1357 216.051 95.8404 214.86 95.264C213.669 94.6876 212.622 93.8449 211.795 92.7987C210.969 91.7526 210.385 90.5299 210.087 89.2219C210.063 89.6696 209.925 90.1033 209.685 90.4793C209.445 90.8554 209.113 91.1607 208.721 91.3646C207.923 91.7636 207.03 91.9244 206.146 91.8284C204.703 91.709 203.316 91.2022 202.127 90.3595C200.939 89.5169 199.991 88.3684 199.379 87.0312C198.457 88.5147 197.054 89.6218 195.413 90.1594C193.772 90.6971 191.997 90.6313 190.399 89.9735C189.237 89.4618 188.123 88.3744 188.311 87.0951C188.411 86.6385 188.603 86.2083 188.876 85.8319C192.189 80.7309 198.202 77.8365 204.168 77.3888C210.184 77.0959 216.193 78.0816 221.815 80.2831C225.232 81.2404 228.389 82.9796 231.046 85.3681C233.731 88.0866 235.112 91.7644 236.416 95.4902C237.444 98.1063 238.227 100.815 238.755 103.582C239.27 106.372 238.981 109.254 237.923 111.881H237.169" fill="#292929"/>
<path d="M189.821 86.4287C189.741 88.7878 188.875 91.0477 187.366 92.832C185.858 94.6164 183.798 95.8175 181.53 96.2354C182.707 96.6852 183.675 97.5735 184.241 98.7227C184.806 99.8719 184.927 101.197 184.58 102.434C184.233 103.671 183.443 104.728 182.368 105.394C181.293 106.06 180.013 106.286 178.782 106.026C179.535 107.579 179.961 109.277 180.033 111.009C180.052 111.873 179.814 112.723 179.35 113.447C178.887 114.17 178.221 114.732 177.439 115.058C177.966 115.625 178.352 116.313 178.564 117.064C178.776 117.816 178.809 118.609 178.659 119.376C178.461 120.28 177.967 121.087 177.259 121.662C176.551 122.238 175.672 122.548 174.768 122.54C173.224 122.54 171.912 120.547 170.353 120.246C169.179 120.033 167.973 120.106 166.833 120.461C165.693 120.816 164.65 121.441 163.791 122.287L161.83 101.835L164.239 85.4322L173.595 78.4409L191.597 81.6835L189.821 86.4287Z" fill="#292929"/>
<path d="M159.625 87.9096C160.278 87.8772 160.929 87.7959 161.573 87.6662C162.389 87.4453 163.146 87.015 163.782 86.4106C164.418 85.8062 164.914 85.045 165.23 84.1892L165.689 82.8506L165.863 84.2762C166.11 86.0239 166.953 87.603 168.223 88.6919C168.947 89.3147 169.794 89.7415 170.696 89.9378C171.599 90.1342 172.53 90.0945 173.416 89.822C174.589 89.495 175.647 88.7931 176.456 87.8053L176.82 87.3533L177.105 87.8575C178.109 89.5467 179.58 90.8383 181.301 91.5431C182.688 92.1015 184.183 92.2514 185.639 91.9777C186.956 91.6624 188.221 91.1289 189.392 90.3956C189.392 90.3956 189.17 90.7607 188.568 91.2127C187.708 91.8457 186.746 92.294 185.734 92.534C184.191 92.9249 182.578 92.8346 181.079 92.2732C179.17 91.5642 177.532 90.1752 176.424 88.3269H177.073C176.164 89.4604 174.968 90.2713 173.638 90.6564C172.626 90.9605 171.563 90.9961 170.536 90.7603C169.509 90.5246 168.548 90.0242 167.732 89.3004C166.332 88.0618 165.428 86.2711 165.214 84.3109L165.848 84.3978C165.488 85.3507 164.914 86.1882 164.181 86.8325C163.447 87.4769 162.577 87.9072 161.652 88.0835C160.976 88.2641 160.266 88.2031 159.625 87.9096Z" fill="#6F6F6F"/>
<path d="M188.878 66.338C187.296 67.0122 185.761 67.7733 184.281 68.6173C182.761 69.5897 181.581 70.9407 180.884 72.5083C180.463 73.4295 180.33 74.4388 180.501 75.4244C180.671 76.41 181.138 77.3335 181.849 78.0924C182.334 78.5995 182.948 78.9908 183.638 79.2321L184.192 79.4111L183.87 79.867C183.418 80.6356 183.181 81.494 183.181 82.366C183.181 83.238 183.418 84.0965 183.87 84.865C184.604 86.1432 185.643 87.2557 186.91 88.1211C189.092 89.6515 190.612 90.4003 190.487 90.5306C190.362 90.6608 190.058 90.4329 189.361 90.1073C188.349 89.6449 187.385 89.1 186.481 88.4793C185.046 87.6089 183.877 86.4214 183.083 85.0279C182.546 84.1432 182.265 83.1489 182.265 82.1381C182.265 81.1273 182.546 80.133 183.083 79.2483L183.316 79.8833C182.477 79.5958 181.728 79.1264 181.134 78.5157C180.286 77.6391 179.734 76.5586 179.544 75.4035C179.353 74.2485 179.533 73.068 180.061 72.0036C180.837 70.3123 182.168 68.8798 183.87 67.9009C184.98 67.2483 186.184 66.7388 187.447 66.3869C188.341 66.3543 188.86 66.2729 188.878 66.338Z" fill="#6F6F6F"/>
<path d="M247.823 131.954C247.823 131.954 247.706 132.049 247.419 132.159C247.001 132.301 246.566 132.396 246.123 132.442C244.457 132.566 242.8 132.106 241.476 131.152C240.71 130.554 240.098 129.801 239.688 128.95C239.278 128.098 239.08 127.171 239.109 126.238C239.138 125.305 239.394 124.391 239.856 123.563C240.319 122.736 240.977 122.017 241.78 121.462C242.45 120.999 243.253 120.736 244.086 120.707C244.536 120.704 244.981 120.797 245.387 120.98C245.793 121.163 246.148 121.43 246.426 121.761C246.687 122.116 246.839 122.53 246.866 122.96C246.892 123.39 246.793 123.818 246.578 124.199C246.2 124.891 245.615 125.465 244.894 125.851C243.561 126.526 242.008 126.716 240.534 126.386C239.315 126.137 238.183 125.604 237.244 124.837C236.305 124.07 235.589 123.092 235.163 121.997C234.604 120.558 234.453 119.008 234.725 117.498C234.777 116.945 234.955 116.408 235.247 115.925C235.247 115.925 235.146 116.507 235.062 117.498C234.932 118.95 235.168 120.41 235.752 121.761C236.162 122.67 236.776 123.485 237.554 124.152C238.455 124.892 239.545 125.401 240.719 125.631C241.992 125.896 243.325 125.722 244.473 125.143C245.584 124.577 246.493 123.177 245.736 122.233C245.536 121.997 245.279 121.809 244.986 121.684C244.694 121.558 244.374 121.498 244.052 121.509C243.395 121.528 242.759 121.737 242.234 122.107C241.173 122.821 240.406 123.854 240.062 125.033C239.741 126.036 239.737 127.104 240.051 128.108C240.364 129.113 240.982 130.012 241.83 130.696C243.021 131.619 244.525 132.115 246.073 132.096C247.217 132.112 247.807 131.876 247.823 131.954Z" fill="#263238"/>
<path d="M161.83 117.762C161.42 118.101 160.945 118.353 160.434 118.504C159.079 119.004 157.643 119.25 156.198 119.231C154.044 119.243 151.907 118.849 149.899 118.071C149.271 117.821 148.702 117.443 148.229 116.96C147.756 116.478 147.389 115.903 147.153 115.271C146.883 114.564 146.883 113.782 147.153 113.075C147.311 112.719 147.54 112.399 147.825 112.134C148.11 111.868 148.446 111.662 148.813 111.528C149.271 111.374 149.767 111.374 150.225 111.528L149.945 112.271C148.785 111.675 147.829 110.747 147.202 109.606C146.574 108.465 146.303 107.163 146.423 105.867C146.513 104.734 146.945 103.655 147.665 102.773C148.42 101.879 149.406 101.208 150.516 100.832C151.626 100.456 152.818 100.389 153.964 100.638C154.46 100.725 154.925 100.938 155.314 101.257C155.314 101.257 154.817 101.087 153.902 100.948C152.633 100.762 151.337 100.973 150.194 101.551C149.331 101.934 148.588 102.541 148.042 103.308C147.496 104.076 147.168 104.975 147.09 105.913C147.005 107.048 147.253 108.184 147.804 109.181C148.355 110.178 149.185 110.994 150.194 111.528L149.899 112.271C149.601 112.179 149.282 112.179 148.983 112.271C148.453 112.478 148.024 112.883 147.789 113.4C147.594 113.929 147.594 114.51 147.789 115.039C147.987 115.573 148.296 116.059 148.694 116.466C149.092 116.874 149.571 117.194 150.1 117.406C152.004 118.185 154.033 118.615 156.089 118.674C158.043 118.722 159.988 118.413 161.83 117.762Z" fill="#263238"/>
<path d="M236.799 264.54C237.278 265.284 254.517 289.013 254.517 289.013L275.385 269.162L262.024 234.701L253.976 220.66L236.799 264.54Z" fill="#E9B3A8"/>
<g opacity="0.3">
<path d="M167.315 475.798L158.457 475.625L155.31 398.608L136.052 390.427L171.043 368.887L264.329 434.827L282.957 475.798H167.315Z" fill="black"/>
</g>
<path d="M229.081 449.059L245.492 480.843L269.873 466.972L259.157 432.334L229.081 449.059Z" fill="#E9B3A8"/>
<path d="M242.357 476.327C242.357 476.327 267.493 477.092 267.996 460.999L269.347 464.245L306.832 488.721C312.786 492.936 312.315 497.759 310.744 500.241C310.168 501.155 309.342 501.885 308.362 502.347C307.382 502.809 306.29 502.983 305.214 502.848C293.557 501.381 250.684 495.73 248.531 492.296L246.3 489.299C242.719 485.1 241.587 479.933 242.75 478.06L242.357 476.327Z" fill="#B69A81"/>
<g opacity="0.6">
<path d="M310.32 501.224L246.426 489.36L247.826 491.248C249.163 493.451 250.658 493.593 252.546 494.206C258.32 495.984 272.764 498.832 305.223 503.127C306.154 503.25 307.101 503.14 307.979 502.808C308.858 502.476 309.64 501.931 310.257 501.224H310.32Z" fill="white"/>
</g>
<g opacity="0.6">
<path d="M250.896 481.242C251.746 481.237 252.567 481.545 253.203 482.109C253.839 482.672 254.245 483.451 254.342 484.295C254.378 485.145 254.086 485.976 253.527 486.617C252.968 487.259 252.184 487.661 251.337 487.74C250.435 487.741 249.565 487.406 248.896 486.802C248.228 486.197 247.808 485.365 247.718 484.468C247.774 483.582 248.171 482.752 248.825 482.151C249.478 481.55 250.339 481.224 251.226 481.242" fill="white"/>
</g>
<path d="M280.549 486.353C280.9 486.353 280.166 482.98 281.921 479.506C283.676 476.031 286.548 474.699 286.405 474.362C286.261 474.024 285.527 474.362 284.346 474.969C282.841 475.901 281.618 477.267 280.818 478.906C280.019 480.545 279.676 482.391 279.831 484.228C279.991 485.628 280.406 486.403 280.549 486.353Z" fill="white"/>
<path d="M287.697 489.662C288.055 489.662 288.412 486.838 290.201 484.139C291.99 481.439 294.246 480.206 294.122 479.831C293.997 479.455 291.244 480.188 289.237 483.299C287.23 486.409 287.386 489.716 287.697 489.662Z" fill="white"/>
<path d="M272.195 483.048C272.506 483.048 272.972 479.807 275.118 476.443C277.263 473.079 280 471.211 279.782 470.949C279.565 470.687 276.439 472.261 274.185 475.903C271.93 479.545 271.93 483.079 272.195 483.048Z" fill="white"/>
<path d="M272.954 473.122C272.954 473.122 272.541 472.51 271.5 471.719C270.006 470.596 268.299 469.774 266.476 469.301C265.17 468.839 263.745 468.808 262.418 469.211C261.996 469.387 261.64 469.684 261.396 470.063C261.153 470.442 261.034 470.884 261.055 471.331C261.163 472.197 261.593 472.994 262.265 473.57C263.67 474.708 265.439 475.331 267.265 475.331C269.092 475.331 270.86 474.708 272.265 473.57C273.626 472.418 274.603 470.896 275.072 469.199C275.542 467.503 275.481 465.708 274.899 464.045C274.752 463.624 274.513 463.239 274.198 462.917C273.884 462.595 273.501 462.343 273.077 462.179C272.634 462.059 272.163 462.078 271.731 462.233C271.3 462.389 270.929 462.673 270.673 463.045C269.971 464.187 269.596 465.491 269.585 466.822C269.433 468.651 269.62 470.492 270.137 472.257C270.28 472.916 270.568 473.537 270.979 474.078C270.445 471.717 270.274 469.292 270.474 466.882C270.532 465.726 270.885 464.603 271.5 463.612C271.637 463.408 271.837 463.252 272.07 463.167C272.304 463.081 272.56 463.069 272.801 463.135C273.069 463.265 273.307 463.447 273.499 463.67C273.692 463.894 273.835 464.154 273.919 464.434C274.376 465.884 274.395 467.433 273.974 468.894C273.553 470.355 272.71 471.668 271.546 472.675C270.359 473.633 268.874 474.171 267.333 474.201C265.792 474.231 264.286 473.751 263.061 472.839C262.592 472.458 262.272 471.931 262.158 471.346C262.132 471.1 262.188 470.852 262.317 470.64C262.447 470.428 262.643 470.261 262.878 470.166C263.993 469.816 265.193 469.816 266.308 470.166C268.68 470.777 270.927 471.777 272.954 473.122Z" fill="white"/>
<path d="M175.06 490.765C175.187 490.765 175.363 528.092 175.363 528.092C175.363 528.092 202.364 532.142 202.364 531.484C202.364 530.827 210.339 495.166 210.339 495.166L175.06 490.765Z" fill="#E9B3A8"/>
<path d="M205.162 521.634C205.162 521.634 185.748 536.172 176.238 523.06L175.876 526.553L158.402 567.786C155.799 574.616 158.906 578.376 161.556 579.566C162.55 580.011 163.652 580.163 164.731 580.004C165.81 579.846 166.82 579.384 167.643 578.674C176.522 570.966 209.073 542.438 208.947 538.381L209.121 534.637C209.736 529.154 207.812 524.203 205.761 523.311L205.162 521.634Z" fill="#B69A81"/>
<g opacity="0.6">
<path d="M162.424 580.066L208.87 534.611L208.76 536.971C208.87 539.535 207.721 540.495 206.431 542.084C202.639 546.804 192.271 557.204 167.663 578.838C166.959 579.46 166.112 579.898 165.198 580.112C164.284 580.326 163.331 580.31 162.424 580.066Z" fill="white"/>
</g>
<g opacity="0.6">
<path d="M200.641 530.362C199.933 530.83 199.422 531.544 199.207 532.366C198.992 533.187 199.088 534.06 199.477 534.815C199.919 535.54 200.622 536.068 201.442 536.29C202.261 536.512 203.135 536.412 203.882 536.011C204.63 535.511 205.167 534.752 205.388 533.88C205.609 533.008 205.498 532.086 205.078 531.29C204.537 530.583 203.744 530.113 202.864 529.978C201.984 529.843 201.086 530.054 200.358 530.567" fill="white"/>
</g>
<path d="M178.308 550.295C178.026 550.397 177.026 548.005 174.081 546.605C171.136 545.206 168.445 545.651 168.445 545.333C168.445 545.015 169.051 544.9 170.221 544.798C171.763 544.718 173.299 545.034 174.65 545.709C176.002 546.385 177.114 547.393 177.857 548.616C178.392 549.596 178.435 550.257 178.308 550.295Z" fill="white"/>
<path d="M173.919 556.896C173.658 557.12 171.998 555.197 169.308 554.219C166.618 553.241 164.098 553.61 164.036 553.257C163.975 552.904 166.557 551.879 169.692 553.049C172.828 554.219 174.211 556.751 173.919 556.896Z" fill="white"/>
<path d="M183.862 544.772C183.629 545.005 181.388 542.326 177.638 540.595C173.887 538.864 170.635 538.814 170.65 538.481C170.666 538.149 174.152 537.666 178.073 539.58C181.995 541.494 184.096 544.639 183.862 544.772Z" fill="white"/>
<path d="M177.754 535.967C177.743 535.283 177.881 534.604 178.16 533.975C178.774 532.216 179.739 530.59 181.003 529.191C181.845 528.092 183.035 527.287 184.392 526.898C184.853 526.813 185.33 526.867 185.757 527.053C186.185 527.24 186.543 527.549 186.782 527.939C187.198 528.721 187.298 529.625 187.063 530.474C186.522 532.194 185.378 533.678 183.827 534.672C182.277 535.666 180.417 536.108 178.566 535.921C176.741 535.689 175.027 534.943 173.638 533.776C172.249 532.608 171.247 531.072 170.757 529.357C170.639 528.926 170.619 528.475 170.697 528.035C170.775 527.595 170.95 527.176 171.21 526.807C171.514 526.46 171.924 526.215 172.381 526.107C172.839 525.998 173.319 526.032 173.756 526.204C175.01 526.781 176.087 527.666 176.879 528.769C178.076 530.223 178.992 531.874 179.582 533.643C179.864 534.265 179.997 534.941 179.972 535.62C179.058 533.342 177.795 531.211 176.223 529.297C175.493 528.365 174.539 527.62 173.443 527.124C173.207 527.024 172.944 527.001 172.693 527.058C172.442 527.115 172.218 527.25 172.053 527.441C171.902 527.694 171.805 527.975 171.77 528.266C171.736 528.556 171.763 528.851 171.85 529.131C172.31 530.601 173.198 531.912 174.408 532.908C175.619 533.903 177.1 534.541 178.676 534.744C180.242 534.897 181.816 534.533 183.14 533.711C184.465 532.889 185.462 531.657 185.97 530.217C186.138 529.627 186.094 529 185.845 528.437C185.718 528.218 185.523 528.043 185.287 527.937C185.052 527.832 184.788 527.801 184.533 527.848C183.386 528.172 182.371 528.831 181.628 529.735C179.968 531.577 178.657 533.686 177.754 535.967Z" fill="white"/>
<path d="M140.884 187.017L173.994 174.356C173.994 174.356 182.339 188.686 197.051 187.438C212.093 186.16 211.607 175.245 211.607 175.245L253.218 186.986C253.218 186.986 255.963 242.917 253.218 251.649C250.474 260.381 242.678 271.764 242.678 271.764C242.678 271.764 250.913 290.771 251.117 296.01C251.321 301.249 249.015 299.94 249.015 299.94L148.632 301.14L140.884 187.017Z" fill="#FFBC0D"/>
<g opacity="0.3">
<path d="M229.482 244.04C228.192 242.876 226.162 243.647 224.62 244.481C215.951 249.201 207.313 253.921 199.021 259.302C188.621 266.146 179.04 274.123 168.86 281.329C162.86 285.525 156.677 289.463 150.31 293.145L148.154 296.905C150.436 300.634 155.187 302.318 159.545 301.987C163.901 301.415 168.052 299.796 171.645 297.267C188.747 286.443 200.784 268.947 217.87 258.106C222.103 255.431 226.807 252.993 229.372 248.666C230.237 247.218 230.709 245.157 229.482 244.04Z" fill="black"/>
</g>
<path d="M233.491 270.79C232.146 271.027 230.79 271.124 229.433 271.081C226.943 271.081 223.484 271.331 219.688 271.705C215.891 272.08 212.447 272.642 209.972 273.058C208.639 273.398 207.286 273.572 205.93 273.578C207.207 272.949 208.532 272.516 209.88 272.288C216.334 270.757 222.883 270.095 229.433 270.311C230.795 270.256 232.157 270.417 233.491 270.79Z" fill="#6F6F6F"/>
<path d="M126.551 254.527C126.551 254.527 135.721 280.754 139.787 287.436C143.852 294.118 145.59 302.734 158.609 299.228C171.628 295.722 178.238 287.09 192.436 275.282C206.634 263.474 215.851 254.527 215.851 254.527L205.827 242.232L164.304 261.414L154.404 239.402L126.551 254.527Z" fill="#E9B3A8"/>
<path d="M253.278 215.147L224.233 230.18L200.417 244.872C200.417 244.872 212.215 255.079 215.547 254.832C218.88 254.585 223.444 250.083 223.444 250.083C223.627 250.502 223.894 250.881 224.231 251.196C224.567 251.511 224.966 251.757 225.402 251.918C226.855 252.412 228.561 250.746 228.561 250.746C229.571 251.13 230.637 251.353 231.72 251.409C233.173 251.409 234.878 245.982 235.715 242.406C236.019 241.531 236.124 240.602 236.023 239.683C235.922 238.765 235.618 237.879 235.131 237.087L236.268 236.454L237.847 239.183L235.368 247.833C234.057 252.581 238.763 251.934 238.763 251.934C238.763 251.934 243.928 243.161 244.449 238.181C244.97 233.201 239.885 230.01 239.885 230.01C239.885 230.01 250.624 220.991 253.262 219.218C255.899 217.445 253.278 215.147 253.278 215.147Z" fill="#E9B3A8"/>
<path d="M160.902 280.193C160.386 279.321 160.056 278.362 159.932 277.37C159.027 272.584 160.141 267.654 163.036 263.634C163.567 262.776 164.283 262.032 165.137 261.451C163.178 264.17 161.739 267.192 160.885 270.38C160.294 273.627 160.299 276.947 160.902 280.193Z" fill="#ECA596"/>
<path d="M142.76 185.38C142.76 185.38 124.061 190.879 120.457 210.59C118.308 222.234 123.508 260.348 123.508 260.348L159.626 246.956L142.76 185.38Z" fill="#FFBC0D"/>
<path d="M148.601 211.84C149.166 213.575 149.615 215.35 149.946 217.152C150.753 220.678 151.77 225.137 152.936 230.07C154.102 235.003 155.208 239.652 156.075 242.925C156.613 244.663 157.063 246.431 157.42 248.221C157.165 247.809 156.964 247.363 156.822 246.893C156.479 246.008 156.045 244.696 155.537 243.083C154.535 239.841 153.354 235.304 152.188 230.26C151.022 225.216 150.095 220.615 149.468 217.279C149.039 215.494 148.749 213.675 148.601 211.84Z" fill="#6F6F6F"/>
<path d="M149.823 300.621C149.823 300.621 126.039 328.567 126.559 351.06C126.93 364.662 130.571 377.974 137.175 389.867L168.676 391.727C168.676 391.727 171.464 376.674 182.741 376.674C185.182 376.674 226.291 455.486 226.291 455.486L266.565 437.06C266.565 437.06 240.151 367.453 233.662 351.06C227.173 334.668 221.062 326.802 212.446 324.469L202.807 300.038L149.823 300.621Z" fill="#B69A81"/>
<path d="M156.318 328.777C156.318 328.909 154.793 328.53 152.327 328.355C149.136 328.127 145.926 328.474 142.886 329.375C139.844 330.251 137.068 331.748 134.775 333.748C133.04 335.307 132.229 336.502 132.099 336.415C131.969 336.327 132.212 336.08 132.569 335.54C133.073 334.763 133.665 334.035 134.337 333.369C136.582 331.166 139.42 329.519 142.578 328.588C145.712 327.659 149.04 327.38 152.311 327.772C153.707 327.867 155.069 328.208 156.318 328.777Z" fill="#6F6F6F"/>
<path d="M194.356 322.087C193.86 318.611 193.697 315.11 193.867 311.614C193.697 308.117 193.86 304.616 194.356 301.14C194.841 304.617 195.004 308.117 194.846 311.614C195.004 315.11 194.841 318.611 194.356 322.087Z" fill="#6F6F6F"/>
<path d="M167.343 300.039C167.282 300.49 167.143 300.927 166.931 301.328C166.444 302.454 165.855 303.532 165.173 304.549C162.937 307.976 159.885 310.773 156.302 312.682C152.719 314.59 148.72 315.549 144.676 315.467C143.464 315.453 142.255 315.33 141.064 315.097C140.618 315.046 140.183 314.915 139.781 314.711C139.781 314.566 141.666 314.952 144.676 314.888C148.598 314.805 152.448 313.798 155.923 311.945C159.397 310.092 162.401 307.444 164.698 304.21C166.488 301.746 167.216 299.975 167.343 300.039Z" fill="#6F6F6F"/>
<path d="M250.386 300.038C258.691 309.049 264.276 320.245 266.491 332.321C269.724 351.756 269.927 377.106 264.413 386.486L248.636 390.047L234.749 404.165L215.036 511.712L170.392 505.547C170.392 505.547 166.206 412.118 167.643 403.224C169.08 394.33 169.361 391.898 169.361 391.898C169.361 391.898 168.362 377.247 178.906 366.658C186.974 358.899 195.531 351.668 204.523 345.011L203.149 300.649L250.386 300.038Z" fill="#B69A81"/>
<path d="M259.95 314.805C259.496 315.068 259.011 315.27 258.507 315.409C257.161 315.846 255.779 316.157 254.376 316.338C249.692 317.013 244.915 316.236 240.68 314.109C239.493 313.467 238.38 312.693 237.363 311.802C236.381 310.966 235.459 310.13 234.599 309.31C233.102 307.842 231.688 306.292 230.362 304.666C229.21 303.288 228.335 302.127 227.736 301.338C227.391 300.947 227.101 300.509 226.876 300.038C228.254 301.376 229.557 302.792 230.776 304.279C231.974 305.61 233.402 307.158 235.106 308.768C236.898 310.554 238.898 312.113 241.064 313.412C245.168 315.457 249.763 316.283 254.315 315.796C257.816 315.44 259.904 314.635 259.95 314.805Z" fill="#6F6F6F"/>
<path d="M169.319 392.323C169.319 392.323 169.319 391.803 169.555 390.749C169.65 390.124 169.797 389.508 169.996 388.907C170.223 388.057 170.529 387.23 170.908 386.436C171.906 384.167 173.439 382.174 175.376 380.628C178.04 378.524 181.249 377.225 184.625 376.882H184.751V377.008C194.064 394.322 209.055 422.181 227.224 455.707L226.721 455.55L266.928 437.118L266.724 437.638C264.663 432.396 262.492 426.84 260.274 421.205L238.582 365.848C235.215 357.223 231.975 348.96 228.923 341.121C227.561 337.308 225.3 333.879 222.332 331.126C219.561 328.544 216.194 326.69 212.532 325.728C203.912 323.233 194.942 322.169 185.978 322.58C179.172 322.866 172.426 323.982 165.89 325.901C161.745 327.132 157.696 328.668 153.777 330.497C152.44 331.126 151.433 331.677 150.757 332.071L149.703 332.574C149.703 332.574 150.033 332.354 150.71 331.992C151.386 331.63 152.283 331.063 153.699 330.418C157.596 328.518 161.642 326.939 165.796 325.696C181.064 321.039 197.351 320.886 212.705 325.255C216.492 326.227 219.978 328.126 222.851 330.78C225.901 333.598 228.232 337.106 229.647 341.011C232.793 348.881 235.939 357.113 239.368 365.723C246.132 383.036 253.447 401.641 261.092 421.111C263.295 426.746 265.481 432.302 267.526 437.543L267.668 437.905L267.322 438.063L227.082 456.447L226.752 456.588L226.595 456.274C208.646 422.622 193.749 394.668 184.515 377.338L184.704 377.449C181.405 377.765 178.264 379.009 175.643 381.037C173.718 382.535 172.181 384.473 171.16 386.688C170.77 387.464 170.454 388.276 170.216 389.112C169.996 389.704 169.833 390.315 169.728 390.938C169.445 391.819 169.319 392.323 169.319 392.323Z" fill="#6F6F6F"/>
<path d="M259.95 333.104C259.856 333.21 258.135 332.287 255.053 331.294C253.247 330.719 251.378 330.264 249.468 329.933C247.122 329.554 244.733 329.348 242.334 329.318C239.937 329.324 237.548 329.51 235.2 329.874C233.283 330.175 231.408 330.61 229.599 331.175C226.47 332.145 224.765 333.044 224.671 332.938C225.025 332.675 225.419 332.445 225.844 332.252C226.316 332.002 226.807 331.772 227.315 331.566C227.909 331.329 228.582 331.021 229.364 330.773C231.187 330.144 233.09 329.656 235.043 329.318C239.849 328.474 244.85 328.498 249.64 329.389C251.589 329.76 253.482 330.284 255.288 330.95C255.986 331.193 256.665 331.465 257.322 331.767C257.833 331.973 258.325 332.206 258.792 332.465C259.207 332.647 259.595 332.861 259.95 333.104Z" fill="#6F6F6F"/>
<g opacity="0.3">
<path d="M183.962 377.101C183.962 377.101 195.872 427.968 208.853 442.207C221.833 456.446 225.31 459.435 225.31 459.435L226.207 455.927L183.962 377.101Z" fill="black"/>
</g>
<path d="M253.336 287.613C253.336 287.613 254.659 279.924 258.582 275.479C262.015 271.983 265.749 268.772 269.743 265.883H271.752L277.046 254.426L291.922 253.734C291.922 253.734 288.733 281.692 281.59 290.197C274.447 298.701 267.144 298.255 264.051 297.394C260.958 296.533 253.336 287.613 253.336 287.613Z" fill="#E9B3A8"/>
<path d="M255.54 276.879C255.609 276.458 255.752 276.05 255.961 275.67C256.475 274.628 257.111 273.639 257.857 272.721C260.351 269.605 263.932 267.349 268.015 266.322C269.228 266.032 270.472 265.859 271.725 265.806L271.401 265.983C273.248 262.916 274.641 259.997 275.775 258.021C276.314 256.93 276.92 255.866 277.589 254.836C277.303 256.013 276.857 257.152 276.261 258.228C275.273 260.292 273.993 263.152 272.097 266.396L272 266.543H271.757C270.565 266.605 269.382 266.773 268.225 267.045C264.318 268.055 260.856 270.153 258.327 273.045C256.382 275.242 255.686 277.012 255.54 276.879Z" fill="#ECA596"/>
<path d="M273.18 238.299C270.594 237.331 268.122 236.141 265.799 234.746C263.332 233.564 261.003 232.17 258.848 230.582C261.426 231.561 263.892 232.755 266.213 234.149C268.674 235.341 271.006 236.73 273.18 238.299Z" fill="#ECA596"/>
<path d="M158.909 128.052C158.496 127.597 158.186 127.069 157.997 126.499C157.403 124.937 157.265 123.254 157.599 121.624C157.845 120.406 158.357 119.248 159.101 118.222C159.846 117.197 160.808 116.325 161.927 115.662C163.253 114.866 164.756 114.367 166.322 114.203C167.168 114.091 168.03 114.133 168.859 114.327C169.338 114.428 169.777 114.651 170.128 114.972C170.48 115.292 170.729 115.698 170.849 116.144C170.901 116.383 170.902 116.63 170.851 116.87C170.799 117.11 170.697 117.338 170.55 117.541C170.275 117.915 169.904 118.219 169.472 118.426C168.672 118.798 167.765 118.918 166.885 118.767C166.117 118.643 165.392 118.346 164.773 117.902C164.155 117.457 163.661 116.878 163.335 116.215C163.008 115.552 162.859 114.824 162.9 114.095C162.94 113.366 163.17 112.657 163.569 112.029C164.146 110.992 165.073 110.162 166.205 109.669C167.049 109.378 167.95 109.261 168.846 109.328C169.743 109.396 170.613 109.644 171.396 110.057C171.982 110.321 172.485 110.722 172.856 111.222C172.856 111.222 172.325 110.818 171.197 110.337C170.452 110.004 169.642 109.819 168.816 109.795C167.991 109.771 167.17 109.908 166.404 110.197C165.386 110.637 164.556 111.387 164.05 112.324C163.756 112.844 163.586 113.416 163.548 114.002C163.511 114.589 163.609 115.176 163.834 115.724C164.122 116.307 164.556 116.815 165.099 117.207C165.641 117.599 166.277 117.863 166.952 117.976C167.651 118.091 168.372 117.993 169.008 117.696C169.305 117.586 169.557 117.389 169.724 117.135C169.892 116.88 169.966 116.581 169.937 116.283C169.844 115.985 169.667 115.715 169.425 115.502C169.183 115.289 168.884 115.14 168.56 115.072C167.83 114.924 167.079 114.893 166.338 114.979C164.9 115.127 163.517 115.579 162.292 116.299C161.24 116.896 160.329 117.687 159.613 118.624C158.898 119.561 158.393 120.624 158.129 121.748C157.769 123.287 157.808 124.885 158.245 126.406C158.643 127.462 158.909 128.021 158.909 128.052Z" fill="#6F6F6F"/>
<path d="M244.576 181.852L240.409 233.433C240.265 235.157 241.558 236.738 243.283 236.881L275.036 240.33C276.76 240.473 278.341 239.18 278.628 237.456L284.806 183.576C285.094 181.708 283.657 179.984 281.645 179.984L247.88 178.834C246.156 178.834 244.719 180.271 244.576 181.852Z" fill="#292929"/>
<path d="M276.082 203.372C276.082 203.372 285.686 219.712 286.676 221.88C287.667 224.048 290.543 227.379 290.732 229.437C290.921 231.495 293.215 243.263 293.011 247.52C292.66 250.806 291.801 254.018 290.465 257.041L277.261 253.758C275.193 251.863 273.52 249.577 272.341 247.033C271.33 244.321 269.569 241.951 267.264 240.199C265.582 238.911 258.949 234.747 258.163 233.239C257.872 232.752 257.718 232.196 257.718 231.628C257.718 231.061 257.872 230.505 258.163 230.018C258.163 230.018 255.019 228.541 254.579 226.876C254.139 225.21 254.579 222.618 258.053 224.205C261.526 225.792 274.29 234.904 275.579 233.914C276.868 232.925 275.28 230.521 275.28 230.521C275.28 230.521 261.715 218.172 261.023 215.988C260.332 213.804 262.312 210.741 265.472 213.411C268.631 216.082 279.053 226.577 280.137 226.577C281.222 226.577 280.043 223.514 280.043 223.514C280.043 223.514 274.699 212.029 273.756 208.965C272.813 205.902 273.41 201.785 276.082 203.372Z" fill="#E9B3A8"/>
<path d="M133.355 153.905C133.358 155.171 132.985 156.409 132.284 157.463C131.582 158.517 130.584 159.338 129.415 159.824C128.247 160.31 126.96 160.438 125.718 160.192C124.477 159.946 123.336 159.336 122.441 158.441C121.546 157.546 120.937 156.406 120.691 155.164C120.445 153.923 120.573 152.636 121.058 151.467C121.544 150.299 122.366 149.3 123.42 148.599C124.473 147.898 125.712 147.525 126.977 147.528C127.815 147.528 128.644 147.693 129.418 148.013C130.192 148.334 130.895 148.804 131.487 149.396C132.079 149.988 132.549 150.691 132.869 151.465C133.19 152.239 133.355 153.068 133.355 153.905Z" fill="white"/>
<path d="M133.354 153.906C133.354 153.906 133.354 153.347 133.013 152.354C132.612 151.023 131.789 149.858 130.67 149.033C129.771 148.368 128.706 147.964 127.592 147.869C126.478 147.773 125.359 147.988 124.361 148.491C123.362 148.994 122.523 149.764 121.936 150.716C121.35 151.668 121.039 152.764 121.039 153.882C121.039 155.001 121.35 156.097 121.936 157.049C122.523 158.001 123.362 158.771 124.361 159.274C125.359 159.777 126.478 159.992 127.592 159.896C128.706 159.801 129.771 159.397 130.67 158.731C131.794 157.905 132.617 156.733 133.013 155.395C133.292 154.449 133.292 153.844 133.354 153.844C133.485 154.353 133.485 154.887 133.354 155.395C133.065 156.898 132.23 158.241 131.011 159.166C130.13 159.861 129.087 160.321 127.98 160.503C126.873 160.685 125.737 160.583 124.68 160.206C123.362 159.747 122.219 158.89 121.411 157.753C120.602 156.616 120.167 155.255 120.167 153.859C120.167 152.464 120.602 151.103 121.411 149.966C122.219 148.828 123.362 147.971 124.68 147.513C125.739 147.139 126.874 147.04 127.982 147.225C129.089 147.409 130.131 147.871 131.011 148.568C132.197 149.482 133.012 150.793 133.308 152.261C133.476 152.794 133.492 153.364 133.354 153.906Z" fill="#263238"/>
<path d="M86.1523 161.695C93.3478 161.046 100.189 158.277 105.811 153.739C111.433 149.201 115.583 143.098 117.736 136.201C119.889 129.305 119.948 121.925 117.906 114.994C115.865 108.064 111.814 101.895 106.265 97.267C100.717 92.6393 93.9214 89.7608 86.7372 88.9956C79.553 88.2305 72.3032 89.613 65.9048 92.9684C59.5065 96.3238 54.2469 101.501 50.7913 107.846C47.3357 114.191 45.8393 121.418 46.4914 128.613C46.9203 133.391 48.2868 138.037 50.5127 142.286C52.7386 146.535 55.7804 150.304 59.4639 153.376C63.1475 156.449 67.4006 158.765 71.98 160.192C76.5594 161.62 81.3753 162.131 86.1523 161.695Z" fill="white"/>
<path d="M86.153 161.695C85.9605 161.746 85.7624 161.772 85.5634 161.773L83.8255 161.881H82.5531C82.0721 161.881 81.5601 161.881 81.0015 161.881C79.7113 161.864 78.4246 161.745 77.1533 161.524C73.637 161.014 70.2198 159.968 67.0209 158.421C59.2755 154.761 53.0552 148.506 49.4388 140.741C45.8223 132.975 45.0379 124.189 47.2215 115.905C47.6578 114.203 48.2126 112.534 48.8818 110.909C51.0097 105.813 54.2862 101.278 58.4556 97.6575C61.3192 95.0845 64.578 92.9889 68.107 91.4507C75.4258 88.2191 83.604 87.4831 91.3822 89.356C95.1299 90.2262 98.7135 91.6932 101.996 93.7007C105.193 95.5857 108.064 97.9751 110.499 100.776C111.692 102.116 112.791 103.537 113.788 105.028C114.741 106.518 115.586 108.073 116.318 109.683C119.105 115.662 120.231 122.282 119.576 128.846C119.057 134.04 117.44 139.064 114.831 143.585C112.223 148.106 108.684 152.02 104.447 155.069C101.576 157.159 98.3989 158.792 95.0286 159.911C93.8165 160.355 92.5713 160.702 91.3046 160.95C90.7615 161.074 90.265 161.214 89.7529 161.292L88.4805 161.462L86.7427 161.664H86.153L86.7427 161.54L88.4495 161.261L89.7064 161.059C90.1719 160.966 90.6684 160.826 91.258 160.687C92.5073 160.403 93.736 160.035 94.9355 159.585C98.2682 158.422 101.407 156.764 104.246 154.666C107.966 151.912 111.126 148.473 113.556 144.534C116.548 139.765 118.376 134.359 118.893 128.753C119.485 122.313 118.35 115.832 115.604 109.978C114.878 108.416 114.043 106.907 113.106 105.462C112.125 104.005 111.047 102.615 109.878 101.304C108.677 99.9711 107.392 98.7168 106.03 97.5488C104.611 96.4086 103.113 95.3715 101.546 94.4455C98.3344 92.4836 94.8298 91.0482 91.165 90.1939C87.3838 89.3511 83.4985 89.0739 79.636 89.3715C75.7572 89.7519 71.9587 90.7198 68.3708 92.2421C64.9671 93.7478 61.8244 95.7852 59.0608 98.2781C57.6923 99.4939 56.4018 100.795 55.1971 102.173C54.0742 103.577 53.0379 105.049 52.0937 106.58C50.2468 109.53 48.8701 112.749 48.0128 116.122C46.4535 121.97 46.3894 128.115 47.8264 133.993C49.2635 139.872 52.1556 145.294 56.2367 149.763C59.3531 153.205 63.1043 156.013 67.2846 158.033C70.4402 159.565 73.8092 160.612 77.2774 161.137C78.5378 161.372 79.8135 161.517 81.0946 161.571C81.6376 161.571 82.1497 161.664 82.6462 161.664H83.9186H85.6565L86.153 161.695Z" fill="#263238"/>
<path fill-rule="evenodd" clip-rule="evenodd" d="M63.4756 117.445H68.2097C68.2097 117.445 72.1217 128.688 82.8549 128.688C93.588 128.688 97.7981 117.445 97.7981 117.445H102.532C102.532 117.445 101.498 125.61 99.849 133.866C98.2002 142.122 95.9731 150.288 95.9731 150.288L93.588 152.063C93.588 152.063 88.8177 150.288 82.8549 150.288C76.892 150.288 72.4199 152.063 72.4199 152.063L70.0347 150.288C70.0347 150.288 67.7896 142.032 66.1589 133.866C64.5281 125.701 63.4756 117.445 63.4756 117.445Z" fill="#DB0007"/>
<path fill-rule="evenodd" clip-rule="evenodd" d="M85.8615 132.239C84.5282 132.239 83.3388 133.951 82.5604 136.628C81.7828 133.951 80.5929 132.239 79.2594 132.239C76.916 132.239 75.0151 137.935 75.0151 144.962H76.9017C76.9017 138.437 77.9578 133.148 79.2594 133.148C80.5619 133.148 81.6174 138.031 81.6174 144.053H83.5037C83.5037 138.031 84.5593 133.148 85.8615 133.148C87.1637 133.148 88.2195 138.437 88.2195 144.962H90.1052C90.1052 137.935 88.2054 132.239 85.8615 132.239Z" fill="#FFBC0D"/>
<path fill-rule="evenodd" clip-rule="evenodd" d="M69.3932 116.261C69.3932 116.261 73.2397 127.505 83.0039 127.505C92.768 127.505 96.6145 116.261 96.6145 116.261C96.6145 116.261 99.2775 116.261 101.349 116.261C102.532 112.415 103.124 109.752 103.716 105.905C102.19 105.48 100.179 105.852 100.046 106.377C99.8183 107.275 99.6776 107.739 99.4332 108.63C98.8073 107.935 97.5115 107.579 96.2504 107.459C95.9043 110.617 95.56 111.776 94.7321 114.989C94.8952 110.995 95.1308 108.78 95.825 104.646C94.4004 104.359 92.5455 104.594 91.9733 105.622C91.597 107.982 91.3955 109.29 91.2546 111.343C91.1134 107.62 91.0427 105.466 90.7216 101.598C88.9164 101.742 87.2396 102.576 86.9297 103.689C86.9663 104.196 87.0306 105.066 87.0613 105.571C85.8187 105.543 84.4752 106.078 83.9878 106.468C83.4346 109.23 83.4202 110.871 82.6566 113.698C82.6566 113.698 82.3478 111.516 83.4066 102.42C83.4701 101.874 81.4407 100.493 79.9998 100.302C79.6763 102.949 79.3923 105.594 79.1433 108.236C79.0013 105.118 78.7598 101.983 78.4134 98.8174C77.3173 98.6244 74.9695 100.576 75.0226 101.115C75.6367 107.356 75.6479 108.345 75.6821 112.523C75.123 108.731 74.8905 107.333 74.3794 105.048C72.9406 105.156 70.8872 106.688 70.9932 107.22C71.5021 109.775 71.6014 110.893 71.7671 114.237C71.0476 110.191 70.5331 108.905 69.6104 104.81C69.5544 104.561 67.0251 103.8 65.6205 104.174C66.3993 107.378 67.268 110.59 67.6085 113.748C66.8092 111.672 66.0659 109.553 65.391 107.371C63.993 107.769 62.215 110.454 62.2946 110.697C62.969 112.754 63.8499 114.293 64.6591 116.261H69.3932Z" fill="#FFBC0D"/>
</svg>
