<svg width="720" height="1024" viewBox="0 0 720 1024" fill="none" xmlns="http://www.w3.org/2000/svg">
<mask id="mask0_526_39130" style="mask-type:alpha" maskUnits="userSpaceOnUse" x="0" y="0" width="720" height="1024">
<rect width="720" height="1024" fill="white"/>
</mask>
<g mask="url(#mask0_526_39130)">
<path d="M267.435 847.925H81.0917C58.6019 847.792 39.5928 828.674 39.5928 806.215L41.7347 337.508C41.8685 315.048 60.2083 296.867 82.6981 297.001L269.845 297.803C292.334 297.937 310.54 316.252 310.406 338.711L308.398 807.284C308.398 829.878 290.059 847.925 267.435 847.925Z" fill="#263238"/>
<path d="M269.577 315.717L233.299 315.583C228.48 315.583 224.464 319.728 224.464 324.808V331.358C224.464 336.438 220.448 340.583 215.628 340.583L144.946 340.315C140.127 340.315 136.111 336.171 136.111 331.091V324.54C136.111 319.46 132.229 315.316 127.276 315.316H114.558L82.8319 315.182C67.0355 315.049 54.1843 327.882 54.1843 343.524L52.1763 800.6C52.1763 816.375 64.8937 829.209 80.5561 829.209L267.301 830.011C283.097 830.145 295.949 817.311 295.949 801.67L297.823 344.326C298.091 328.551 285.373 315.717 269.577 315.717Z" fill="#F5F5F5"/>
<path fill-rule="evenodd" clip-rule="evenodd" d="M157.938 522.872C151.207 522.872 145.754 551.224 145.754 586.197H136C136 548.531 145.823 518 157.938 518C164.831 518 170.98 527.178 175 541.526C179.02 527.178 185.169 518 192.062 518C204.174 518 214 548.531 214 586.197H204.246C204.246 551.224 198.79 522.872 192.062 522.872C185.332 522.872 179.875 549.043 179.875 581.325H170.125C170.125 549.043 164.668 522.872 157.938 522.872Z" fill="#FFBC0D"/>
<path d="M499.114 565.745C499.114 565.745 520.868 569.388 522.625 569.928C524.382 570.333 531.273 573.706 531.678 575.73C532.084 577.889 531.678 583.962 531.678 583.962C531.678 583.962 530.462 585.041 529.651 583.017C528.841 580.993 528.976 576.945 528.976 576.945L525.057 575.46L527.219 579.239L527.625 588.01C527.625 588.01 524.922 587.74 524.382 585.716C523.841 583.557 523.841 581.263 523.841 581.263L521.004 578.834L523.165 581.668L523.841 588.01C523.841 588.01 521.814 588.685 521.139 587.335C520.463 585.986 520.463 581.803 520.463 581.803L512.491 578.969L507.221 581.938L497.357 576.405L499.114 565.745Z" fill="#E9B3A8"/>
<path d="M422.769 511.903C422.904 512.308 448.983 548.337 448.983 548.337L501.546 564.665L499.113 584.366L434.66 571.412L411.824 545.234L422.769 511.903Z" fill="white"/>
<g opacity="0.2">
<path d="M422.769 511.903C422.904 512.308 448.983 548.337 448.983 548.337L501.546 564.665L499.113 584.366L434.66 571.412L411.824 545.234L422.769 511.903Z" fill="white"/>
</g>
<path d="M622.801 849.437C653.287 847.975 676.813 822.109 675.349 791.665C673.885 761.221 647.985 737.726 617.499 739.188C587.014 740.65 563.487 766.515 564.951 796.96C566.415 827.404 592.316 850.899 622.801 849.437Z" fill="#263238"/>
<path d="M565.053 793.39V793.525C564.648 824.021 588.97 848.985 619.508 849.525C650.045 849.93 675.043 825.641 675.584 795.144V795.009L565.053 793.39Z" fill="#292929"/>
<path d="M581.403 793.795C581.133 815.25 598.158 832.792 619.643 833.062C641.127 833.332 658.693 816.33 658.963 794.874C659.234 773.419 642.208 755.876 620.724 755.606C599.374 755.336 581.808 772.474 581.403 793.795Z" fill="#FAFAFA"/>
<path d="M620.859 755.606C599.374 755.336 581.809 772.339 581.538 793.795L659.099 794.874C659.369 773.553 642.208 755.876 620.859 755.606Z" fill="#E0E0E0"/>
<path d="M596.672 794.064C596.537 807.154 606.941 817.814 619.913 817.949C633.02 818.084 643.695 807.693 643.83 794.739C643.965 781.65 633.561 770.99 620.589 770.855C607.482 770.585 596.807 780.975 596.672 794.064Z" fill="#292929"/>
<path d="M593.97 713.505C593.97 713.505 650.586 696.367 673.962 757.765L555.595 794.334L593.97 713.505Z" fill="#FFBC0D"/>
<path d="M282.038 849.431C312.524 847.969 336.05 822.104 334.586 791.659C333.122 761.215 307.222 737.72 276.736 739.182C246.251 740.644 222.724 766.51 224.189 796.954C225.653 827.398 251.553 850.893 282.038 849.431Z" fill="#263238"/>
<path d="M224.139 793.39V793.525C223.734 824.021 248.056 848.985 278.593 849.525C309.131 849.93 334.129 825.641 334.669 795.144V795.009L224.139 793.39Z" fill="#292929"/>
<path d="M240.489 793.795C240.219 815.25 257.244 832.792 278.729 833.062C300.213 833.332 317.779 816.33 318.049 794.874C318.32 773.419 301.294 755.876 279.81 755.606C258.46 755.336 240.894 772.474 240.489 793.795Z" fill="#FAFAFA"/>
<path d="M279.944 755.606C258.46 755.336 240.894 772.339 240.624 793.795L318.184 794.874C318.454 773.553 301.294 755.876 279.944 755.606Z" fill="#E0E0E0"/>
<path d="M255.758 794.064C255.623 807.154 266.027 817.814 278.999 817.949C292.106 818.084 302.78 807.693 302.915 794.739C303.051 781.65 292.646 770.99 279.674 770.855C266.567 770.585 255.893 780.975 255.758 794.064Z" fill="#292929"/>
<path d="M357.91 772.204C357.64 772.339 328.859 767.751 328.859 767.751C325.751 771.799 320.887 774.363 315.752 774.633C303.321 775.173 291.16 775.712 280.62 776.252C270.756 776.657 263.189 785.023 263.595 794.739C264 804.05 271.432 811.472 280.755 811.742L341.966 814.171C351.965 814.575 365.342 808.503 371.693 800.542L357.91 772.204Z" fill="#6F6F6F"/>
<path d="M207.654 747.78C207.654 747.78 205.087 694.073 255.622 682.873V675.991H432.903V692.454C432.903 692.454 406.825 723.76 415.337 749.669C423.85 775.712 426.553 778.276 426.553 778.276H527.489C527.489 778.276 539.65 762.893 540.191 740.088C540.731 717.283 531.273 678.285 524.111 653.321C517.625 630.651 513.572 611.76 513.572 611.76L543.839 601.639C543.839 601.639 599.78 674.777 602.077 678.825C604.374 682.873 612.076 692.589 610.32 713.505C608.563 734.421 558.162 799.462 544.92 806.749C531.678 814.036 519.787 814.575 507.897 816.33C497.627 817.949 421.148 816.869 401.15 816.6C394.258 816.465 387.367 814.71 381.422 811.067C375.476 807.424 371.017 801.486 366.018 791.636L355.478 771.125L207.654 747.78Z" fill="#FFBC0D"/>
<path d="M221.166 744.001L198.871 778.951C196.033 783.404 200.627 789.072 205.492 786.913C207.789 785.833 210.356 784.349 212.924 781.785C223.193 772.069 241.299 746.565 241.299 746.565L221.166 744.001Z" fill="#6F6F6F"/>
<path d="M381.286 750.344C381.286 750.344 381.286 750.209 381.422 749.804C381.557 749.399 381.692 748.994 381.827 748.319C382.232 746.97 382.638 745.081 383.043 742.517C383.584 737.524 383.313 729.833 379.53 721.466C377.638 717.283 374.936 712.965 371.287 709.052C367.639 705.138 363.045 701.63 357.775 698.661C352.505 695.828 346.425 693.534 340.074 692.049C333.588 690.565 326.832 690.025 319.806 690.025C312.779 690.025 306.023 690.7 299.402 691.509C292.916 692.454 286.565 693.534 280.62 694.883C268.729 697.582 258.46 701.495 250.488 705.948C242.515 710.401 236.84 715.394 233.327 719.037C231.571 720.927 230.219 722.411 229.409 723.49C229.003 724.03 228.733 724.435 228.463 724.705C228.192 724.975 228.192 725.11 228.057 725.11C228.057 725.11 229.544 722.681 233.057 718.902C236.57 715.124 242.245 710.131 250.217 705.543C258.19 700.955 268.459 696.907 280.35 694.208C286.295 692.859 292.511 691.779 299.132 690.835C305.753 689.89 312.509 689.35 319.535 689.35C326.562 689.35 333.453 690.025 339.939 691.509C346.425 692.994 352.505 695.288 357.775 698.256C363.18 701.225 367.774 704.869 371.423 708.782C375.071 712.695 377.908 717.148 379.665 721.331C383.448 729.833 383.584 737.524 382.908 742.652C382.503 745.216 381.962 747.105 381.557 748.454C381.286 749.129 381.151 749.534 381.016 749.939C381.422 750.209 381.286 750.344 381.286 750.344Z" fill="#263238"/>
<g opacity="0.4">
<path d="M336.291 691.105C346.155 692.994 354.803 696.502 363.045 701.9C371.153 707.298 377.368 714.989 380.881 724.03C384.395 733.071 383.854 745.216 380.206 752.638L392.772 753.717C396.961 739.683 392.367 722.411 382.233 711.481C370.342 698.661 353.992 691.105 336.291 691.105Z" fill="#292929"/>
</g>
<path d="M432.768 682.199C432.768 682.334 392.907 682.603 343.858 682.603C294.673 682.603 254.812 682.468 254.812 682.199C254.812 681.929 294.673 681.794 343.858 681.794C392.907 681.794 432.768 681.929 432.768 682.199Z" fill="#263238"/>
<path d="M432.903 675.856C432.903 675.856 435.876 672.348 436.146 667.895C436.417 663.442 434.39 657.909 429.66 657.909H368.45C358.586 657.909 350.479 666.006 350.479 675.856H432.903Z" fill="#6F6F6F"/>
<path d="M513.572 611.76L502.897 589.629C499.924 583.287 502.357 575.865 508.302 572.222L540.191 553.195C541.812 552.251 543.704 551.711 545.731 551.711H552.622L555.325 596.511L544.65 600.559L551.406 611.49L513.572 611.76Z" fill="#FFBC0D"/>
<path d="M552.622 553.465C552.622 553.465 563.567 555.894 564.918 572.762C566.27 589.494 555.325 594.757 555.325 594.757L552.622 553.465Z" fill="#D6D6D6"/>
<path d="M517.22 580.858C517.22 580.858 495.195 591.249 492.493 593.003C490.601 594.217 488.979 596.241 490.466 599.885C492.898 606.092 503.302 600.29 503.302 600.29L523.841 590.034C523.841 590.034 531.678 586.256 528.841 581.668C525.598 576.54 517.22 580.858 517.22 580.858Z" fill="#292929"/>
<path d="M486.142 577.08C486.142 577.08 506.816 580.588 508.572 581.128C510.329 581.668 517.22 584.906 517.625 586.93C518.031 589.089 517.625 595.162 517.625 595.162C517.625 595.162 516.409 596.241 515.598 594.217C514.788 592.193 514.923 588.145 514.923 588.145L511.004 586.661L513.166 590.439L513.572 599.21C513.572 599.21 510.869 598.94 510.329 596.916C509.788 594.757 509.788 592.463 509.788 592.463L506.951 590.034L509.113 592.868L509.788 599.21C509.788 599.21 507.761 599.885 507.086 598.535C506.41 597.186 506.41 593.003 506.41 593.003L498.438 590.169L493.168 593.138L484.926 588.55L486.142 577.08Z" fill="#E9B3A8"/>
<path d="M518.301 548.337C518.301 556.704 514.518 563.451 509.653 563.451C504.924 563.451 501.005 556.704 501.005 548.337C501.005 539.971 504.789 533.224 509.653 533.224C514.518 533.224 518.301 539.971 518.301 548.337Z" fill="#292929"/>
<path d="M511.139 558.728L515.869 575.056C518.031 573.976 518.436 571.952 518.031 570.198C516.815 564.665 516.139 560.617 514.923 555.759C514.788 555.219 511.139 558.728 511.139 558.728Z" fill="#292929"/>
<g opacity="0.4">
<path d="M417.635 756.551C417.229 755.201 416.689 753.852 416.283 752.368C415.878 751.018 415.338 749.669 415.067 748.319C414.392 746.025 413.986 743.597 413.851 742.112C405.879 774.498 418.04 797.303 438.984 798.922C469.522 801.216 506.68 802.97 521.814 799.057C549.244 791.905 559.378 768.965 561.675 765.187C564.108 761.409 585.862 721.601 572.485 683.143C559.108 644.82 535.732 604.068 535.732 604.068L513.437 611.49C513.437 611.49 517.49 630.381 523.976 653.051C531.003 678.015 540.596 717.013 540.056 739.818C539.515 762.623 527.354 778.006 527.354 778.006H426.418C426.418 778.276 424.256 776.117 417.635 756.551Z" fill="#292929"/>
</g>
<path d="M203.6 739.413L204.276 731.722L388.448 752.908C398.852 754.122 406.014 763.838 404.257 774.093L403.447 778.816L212.924 751.153C207.113 750.209 203.06 745.081 203.6 739.413Z" fill="#E8505B"/>
<g opacity="0.6">
<path d="M203.6 739.413L204.276 731.722L388.448 752.908C398.852 754.122 406.014 763.838 404.257 774.093L403.447 778.816L212.924 751.153C207.113 750.209 203.06 745.081 203.6 739.413Z" fill="#FFBC0D"/>
</g>
<g opacity="0.3">
<path d="M561.675 790.826C561.675 790.826 602.212 746.295 610.59 711.346C613.427 711.346 619.913 711.616 623.156 712.29C623.021 712.155 599.104 777.332 561.675 790.826Z" fill="black"/>
</g>
<path d="M609.914 695.558C609.914 695.558 610.049 695.963 610.184 696.637C610.32 697.447 610.455 698.526 610.59 699.876C610.86 702.71 610.995 706.893 610.32 712.02C609.644 717.148 607.887 722.951 604.915 729.158C602.077 735.365 598.159 741.707 594.24 748.32C586.133 761.679 577.079 772.609 570.458 780.3C567.215 784.214 564.378 787.317 562.486 789.476C561.54 790.556 560.865 791.366 560.324 791.905C559.784 792.445 559.513 792.715 559.513 792.715C559.513 792.715 559.784 792.445 560.189 791.77C560.73 791.096 561.405 790.286 562.216 789.207C564.108 786.913 566.675 783.809 569.918 779.896C576.404 772.069 585.322 761.139 593.429 747.78C597.483 741.168 601.401 734.825 604.239 728.753C607.077 722.681 608.833 716.878 609.644 711.886C610.455 706.893 610.32 702.71 610.184 699.876C610.049 698.391 609.914 697.312 609.914 696.637C609.914 695.963 609.914 695.558 609.914 695.558Z" fill="#263238"/>
<path d="M539.92 790.421C539.785 790.556 536.813 787.992 533.435 784.619C529.921 781.245 527.354 778.411 527.489 778.276C527.624 778.141 530.597 780.705 533.975 784.079C537.353 787.452 540.056 790.286 539.92 790.421Z" fill="#263238"/>
<path d="M419.526 789.072C419.391 788.937 420.472 786.238 422.499 783.269C424.526 780.3 426.687 778.276 426.823 778.411C426.958 778.546 425.066 780.705 423.174 783.674C421.147 786.643 419.796 789.207 419.526 789.072Z" fill="#263238"/>
<path d="M341.696 814.845C341.561 814.71 344.669 812.821 347.236 807.828C348.587 805.399 349.668 802.161 349.938 798.652C350.209 795.009 349.803 790.961 347.911 787.183C346.02 783.404 343.182 780.435 340.209 778.411C337.237 776.387 333.994 775.173 331.291 774.768C325.751 773.688 322.373 774.903 322.373 774.633C322.373 774.633 322.508 774.498 322.914 774.498C323.319 774.363 323.86 774.228 324.67 774.093C326.157 773.823 328.589 773.823 331.291 774.228C334.129 774.633 337.372 775.847 340.48 777.872C343.588 779.896 346.56 782.999 348.452 786.913C350.344 790.826 350.749 795.144 350.479 798.787C350.073 802.566 348.992 805.804 347.506 808.233C346.155 810.662 344.669 812.416 343.452 813.496C342.912 814.036 342.371 814.441 342.101 814.71C341.831 814.71 341.696 814.845 341.696 814.845Z" fill="#263238"/>
<path d="M274.405 800.677C274.27 800.677 273.864 797.843 273.729 794.199C273.594 790.556 273.594 787.722 273.729 787.722C273.864 787.722 274.27 790.556 274.405 794.199C274.675 797.843 274.675 800.677 274.405 800.677Z" fill="#263238"/>
<path d="M279.269 800.677C279.134 800.677 278.593 797.843 278.053 794.199C277.648 790.556 277.377 787.722 277.512 787.587C277.648 787.587 278.188 790.421 278.729 794.064C279.269 797.708 279.539 800.677 279.269 800.677Z" fill="#263238"/>
<path d="M355.208 675.856C355.208 675.991 332.777 676.261 305.212 676.261C277.647 676.261 255.217 676.126 255.217 675.856C255.217 675.586 277.647 675.451 305.212 675.451C332.913 675.586 355.208 675.721 355.208 675.856Z" fill="#263238"/>
<path d="M238.057 831.848C238.057 831.848 237.786 831.713 237.516 831.308C237.111 830.903 236.57 830.364 235.895 829.554C234.543 827.935 232.787 825.506 230.895 822.267C227.112 815.79 223.463 805.804 223.463 794.199C223.463 782.729 227.247 772.609 231.03 766.267C232.922 763.028 234.679 760.599 236.03 758.98C236.705 758.17 237.246 757.63 237.651 757.226C238.057 756.821 238.192 756.686 238.192 756.686C238.192 756.686 238.057 756.956 237.651 757.361C237.381 757.765 236.841 758.44 236.165 759.25C234.949 760.869 233.192 763.298 231.3 766.537C227.652 773.014 224.004 782.864 224.004 794.199C224.004 805.534 227.517 815.52 231.165 821.997C232.922 825.236 234.679 827.8 235.895 829.419C236.435 830.229 236.976 830.903 237.381 831.308C237.922 831.578 238.057 831.848 238.057 831.848Z" fill="#455A64"/>
<path fill-rule="evenodd" clip-rule="evenodd" d="M249.57 591.548C249.57 591.548 249.918 620.124 250.091 634.412C250.243 646.916 251.675 671.912 251.675 671.912C251.702 674.132 253.807 675.905 256.375 675.874L319.235 675.11C321.802 675.079 323.864 673.255 323.837 671.034C323.837 671.034 324.676 647.247 324.531 635.36C324.35 620.454 323.988 590.643 323.988 590.643L309.104 590.824L294.221 591.005L279.337 591.186L264.454 591.367L249.57 591.548Z" fill="#C2945C"/>
<mask id="mask1_526_39130" style="mask-type:luminance" maskUnits="userSpaceOnUse" x="249" y="590" width="76" height="86">
<path fill-rule="evenodd" clip-rule="evenodd" d="M249.571 591.548C249.571 591.548 249.918 620.124 250.092 634.412C250.244 646.916 251.675 671.912 251.675 671.912C251.702 674.132 253.808 675.905 256.375 675.874L319.236 675.11C321.803 675.079 323.865 673.255 323.838 671.034C323.838 671.034 324.676 647.247 324.532 635.36C324.351 620.454 323.988 590.643 323.988 590.643L309.105 590.824L294.221 591.005L279.338 591.186L264.454 591.367L249.571 591.548Z" fill="white"/>
</mask>
<g mask="url(#mask1_526_39130)">
<rect x="247.603" y="661.332" width="80.0149" height="17.4388" transform="rotate(-0.696461 247.603 661.332)" fill="#DB0007"/>
<path fill-rule="evenodd" clip-rule="evenodd" d="M314.704 616.647C321.233 616.568 326.849 642.786 327.243 675.194L336.705 675.079C336.281 640.171 326.405 611.992 314.649 612.135C307.965 612.216 302.1 620.794 298.36 634.138C294.295 620.889 288.225 612.456 281.536 612.537C269.785 612.68 260.595 641.091 261.019 675.999L270.481 675.884C270.088 643.476 275.064 617.129 281.591 617.05C288.125 616.97 293.714 641.164 294.078 671.084L303.537 670.969C303.174 641.049 308.178 616.727 314.704 616.647Z" fill="#FFBC0D"/>
</g>
<path opacity="0.2" d="M249.614 597.025L324.031 596.12L324.125 603.847L249.729 606.535L249.614 597.025Z" fill="#292929"/>
<path fill-rule="evenodd" clip-rule="evenodd" d="M249.232 579.149L285.33 578.174L324.039 578.241C324.887 578.242 325.591 578.895 325.655 579.739L326.757 594.375C326.824 595.267 326.154 596.045 325.261 596.112L325.21 596.115L248.549 597.048C247.653 597.059 246.917 596.342 246.906 595.448L246.908 595.346L247.655 580.686C247.698 579.841 248.385 579.171 249.232 579.149Z" fill="#C2945C"/>
<mask id="mask2_526_39130" style="mask-type:luminance" maskUnits="userSpaceOnUse" x="267" y="578" width="35" height="35">
<path fill-rule="evenodd" clip-rule="evenodd" d="M267.334 579.596C267.191 579.122 267.529 578.642 268.024 578.626C270.948 578.532 279.788 578.252 285.192 578.142C290.643 578.032 297.911 578.177 300.192 578.229C300.594 578.238 300.913 578.564 300.92 578.966L301.522 610.973C301.53 611.391 301.196 611.735 300.778 611.74L277.68 612.021C277.344 612.025 277.046 611.807 276.949 611.486L267.334 579.596Z" fill="white"/>
</mask>
<g mask="url(#mask2_526_39130)">
<path fill-rule="evenodd" clip-rule="evenodd" d="M277.796 607.16L272.693 578.33L273.959 578.197C278.229 577.758 281.546 577.512 283.911 577.459L295.896 577.309L300.392 603.613C300.589 604.766 299.844 605.861 298.715 606.116L298.563 606.144L280.284 608.94C279.108 609.12 278.003 608.33 277.796 607.16Z" fill="#F9F9F9"/>
<mask id="mask3_526_39130" style="mask-type:luminance" maskUnits="userSpaceOnUse" x="272" y="577" width="29" height="32">
<path fill-rule="evenodd" clip-rule="evenodd" d="M277.796 607.16L272.693 578.33L273.959 578.197C278.229 577.758 281.546 577.512 283.911 577.459L295.896 577.309L300.392 603.613C300.589 604.766 299.844 605.861 298.715 606.116L298.563 606.144L280.284 608.94C279.108 609.12 278.003 608.33 277.796 607.16Z" fill="white"/>
</mask>
<g mask="url(#mask3_526_39130)">
<mask id="mask4_526_39130" style="mask-type:luminance" maskUnits="userSpaceOnUse" x="277" y="584" width="22" height="22">
<path fill-rule="evenodd" clip-rule="evenodd" d="M277.302 587.534L295.449 584.758L298.22 602.874L280.074 605.65L277.302 587.534Z" fill="white"/>
</mask>
<g mask="url(#mask4_526_39130)">
<path fill-rule="evenodd" clip-rule="evenodd" d="M286.376 586.146C281.365 586.912 277.923 591.589 278.688 596.592C279.453 601.594 284.136 605.029 289.147 604.262C294.158 603.496 297.6 598.819 296.835 593.816C296.07 588.813 291.387 585.379 286.376 586.146Z" fill="#DB0007"/>
<ellipse cx="285.892" cy="600.606" rx="0.383242" ry="0.484863" transform="rotate(-8.69646 285.892 600.606)" fill="white"/>
<ellipse cx="291.194" cy="599.795" rx="0.383242" ry="0.484863" transform="rotate(-8.69645 291.194 599.795)" fill="white"/>
<ellipse cx="290.188" cy="600.311" rx="0.383242" ry="0.484863" transform="rotate(-8.69645 290.188 600.311)" fill="white"/>
<ellipse cx="289.148" cy="600.598" rx="0.383242" ry="0.484863" transform="rotate(-8.69645 289.148 600.598)" fill="white"/>
<ellipse cx="288.089" cy="600.76" rx="0.383242" ry="0.484863" transform="rotate(-8.69645 288.089 600.76)" fill="white"/>
<ellipse cx="287.007" cy="600.798" rx="0.383242" ry="0.484863" transform="rotate(-8.69645 287.007 600.798)" fill="white"/>
<path fill-rule="evenodd" clip-rule="evenodd" d="M284.452 598.787C284.034 598.851 283.746 599.242 283.81 599.659C283.874 600.077 284.265 600.364 284.683 600.3C285.102 600.236 285.389 599.845 285.325 599.428C285.261 599.01 284.871 598.723 284.452 598.787ZM284.486 599.012C284.78 598.967 285.056 599.169 285.101 599.462C285.122 599.604 285.087 599.746 285.002 599.862C284.917 599.978 284.791 600.054 284.649 600.076C284.355 600.121 284.08 599.919 284.035 599.625C284.013 599.483 284.048 599.341 284.133 599.225C284.219 599.109 284.344 599.034 284.486 599.012Z" fill="white"/>
<path fill-rule="evenodd" clip-rule="evenodd" d="M292.902 598.269C292.965 598.687 292.678 599.077 292.26 599.141C291.841 599.205 291.45 598.918 291.386 598.501C291.322 598.083 291.61 597.692 292.028 597.628C292.447 597.564 292.838 597.851 292.902 598.269Z" fill="white"/>
</g>
<path fill-rule="evenodd" clip-rule="evenodd" d="M288.976 589.74C289.76 589.62 290.9 592.825 291.523 596.897L292.659 596.724C291.988 592.338 290.3 588.957 288.889 589.173C288.086 589.296 287.533 590.474 287.321 592.217C286.597 590.617 285.717 589.658 284.914 589.781C283.503 589.997 282.902 593.727 283.573 598.113L284.709 597.94C284.086 593.867 284.217 590.468 285.001 590.348C285.785 590.228 286.887 593.179 287.462 596.938L288.597 596.764C288.022 593.005 288.192 589.86 288.976 589.74Z" fill="#FFBC0D"/>
<path opacity="0.2" d="M248.536 597.242L323.471 596.314L323.491 598.001L248.556 598.93L248.536 597.242Z" fill="#292929"/>
</g>
</g>
<path d="M431.552 729.023L431.147 729.832L423.039 745.081L411.689 756.011L434.525 786.373L453.577 783.269C453.577 783.269 451.415 778.951 441.956 778.141L438.308 760.059L451.685 739.278" fill="#6F6F6F"/>
<path d="M411.689 756.011L434.39 786.372L453.442 783.269L450.875 780.705L435.2 782.459L414.121 753.717L411.689 756.011Z" fill="#D6D6D6"/>
<path d="M440.2 769.775C440.065 770.045 438.849 769.505 437.498 769.775C436.011 770.045 435.066 770.854 434.93 770.719C434.795 770.584 435.606 769.235 437.363 768.965C439.119 768.56 440.335 769.505 440.2 769.775Z" fill="#292929"/>
<path d="M439.254 765.322C439.119 765.457 438.038 764.512 436.552 764.512C434.93 764.512 433.849 765.322 433.714 765.187C433.579 765.052 433.849 764.782 434.255 764.377C434.795 763.972 435.606 763.702 436.552 763.702C437.498 763.702 438.308 764.107 438.714 764.512C439.119 764.782 439.254 765.187 439.254 765.322Z" fill="#292929"/>
<path d="M438.308 759.384C438.173 759.519 437.227 758.575 435.876 758.305C434.525 758.035 433.309 758.71 433.174 758.44C433.174 758.305 433.309 758.035 433.849 757.765C434.39 757.495 435.2 757.225 436.011 757.36C436.957 757.495 437.633 758.035 437.903 758.44C438.308 758.98 438.443 759.384 438.308 759.384Z" fill="#292929"/>
<path d="M442.632 754.122C442.362 754.257 441.686 753.312 440.335 752.637C438.984 752.098 437.768 752.098 437.768 751.963C437.632 751.693 439.119 751.153 440.74 751.963C442.362 752.637 442.902 753.987 442.632 754.122Z" fill="#263238"/>
<path d="M444.524 749.804C444.389 749.938 443.713 749.264 442.497 748.049C441.821 747.375 441.146 746.7 440.47 746.025C440.065 745.62 439.659 745.351 439.389 744.676C439.254 744.271 439.119 743.866 439.254 743.461C439.389 743.057 439.93 742.652 440.335 742.652C441.146 742.652 441.686 742.922 442.227 743.326C442.767 743.596 443.173 744.001 443.578 744.406C444.389 745.216 444.794 746.16 445.064 746.97C445.47 748.589 445.199 749.669 445.064 749.669C444.929 749.669 445.064 748.589 444.524 747.24C444.253 746.565 443.848 745.755 443.037 745.081C442.632 744.676 442.227 744.406 441.821 744.136C441.416 743.866 440.74 743.596 440.335 743.596C440.2 743.596 440.065 743.731 440.065 743.866C440.065 744.001 440.065 744.271 440.065 744.406C440.2 744.811 440.74 745.216 441.011 745.62C441.686 746.295 442.227 747.105 442.902 747.779C443.983 748.859 444.659 749.669 444.524 749.804Z" fill="#263238"/>
<path d="M445.335 750.208C445.2 750.208 445.2 749.264 446.01 747.914C446.821 746.7 448.848 745.216 451.415 746.025C451.55 746.16 451.821 746.43 451.821 746.7C451.821 746.97 451.821 747.24 451.685 747.375C451.55 747.645 451.28 747.914 451.145 748.049C450.74 748.454 450.334 748.724 449.929 748.994C449.118 749.534 448.307 749.939 447.497 750.073C446.01 750.478 445.064 750.343 445.064 750.208C445.064 750.073 446.01 749.939 447.226 749.534C447.902 749.264 448.578 748.859 449.388 748.319C449.794 748.049 450.064 747.779 450.469 747.375C450.604 747.24 450.875 746.97 450.875 746.835C450.875 746.7 450.875 746.7 450.875 746.7C450.74 746.7 450.469 746.565 450.334 746.565C450.064 746.565 449.794 746.565 449.659 746.565C449.118 746.565 448.713 746.7 448.307 746.835C447.497 747.105 446.821 747.645 446.416 748.184C445.605 749.399 445.47 750.208 445.335 750.208Z" fill="#263238"/>
<path d="M426.688 752.907C426.958 754.122 426.012 755.336 424.796 755.471C423.58 755.741 422.364 754.796 422.229 753.582C421.958 752.367 422.904 751.153 424.12 751.018C425.336 750.883 426.553 751.693 426.688 752.907Z" fill="#D6D6D6"/>
<path d="M500.735 743.596L506.815 783.134L556.135 775.847C555.189 771.124 528.3 765.592 528.3 765.592L525.462 740.088L500.735 743.596Z" fill="#6F6F6F"/>
<path d="M512.761 765.592C511.815 765.996 511.409 767.211 511.68 768.155C512.085 769.1 513.166 769.64 514.112 769.235C515.058 768.83 515.733 767.481 515.193 766.536C514.788 765.592 513.301 765.187 512.49 765.727" fill="#D6D6D6"/>
<path d="M506.815 783.134L506.41 779.086L553.838 773.553C553.838 773.553 556.135 774.228 556.135 775.712L506.815 783.134Z" fill="#D6D6D6"/>
<path d="M528.975 765.052C528.975 765.322 527.759 765.592 526.813 766.536C525.733 767.481 525.327 768.56 525.057 768.56C524.787 768.56 524.922 767.076 526.273 765.996C527.489 764.782 529.111 764.917 528.975 765.052Z" fill="#292929"/>
<path d="M534.515 766.401C534.651 766.671 533.57 767.211 532.894 768.29C532.218 769.37 532.218 770.584 531.948 770.584C531.678 770.719 531.408 769.235 532.218 767.886C533.029 766.536 534.515 766.266 534.515 766.401Z" fill="#292929"/>
<path d="M538.299 772.204C538.029 772.339 537.623 771.124 538.029 769.775C538.434 768.425 539.515 767.616 539.65 767.886C539.785 768.021 539.245 768.83 538.839 770.045C538.569 771.124 538.569 772.204 538.299 772.204Z" fill="#292929"/>
<path d="M527.759 759.384C527.624 759.654 526.543 759.384 525.192 759.789C523.841 760.059 522.895 760.734 522.76 760.464C522.625 760.329 523.435 759.249 525.057 758.98C526.543 758.575 527.759 759.114 527.759 759.384Z" fill="#263238"/>
<path d="M525.732 753.717C525.732 753.852 524.787 754.122 523.3 754.122C522.49 754.122 521.544 753.987 520.598 753.717C520.057 753.582 519.652 753.447 519.111 753.177C518.841 753.042 518.571 752.907 518.301 752.772C518.03 752.502 517.76 751.963 518.031 751.558C518.166 751.153 518.706 750.883 518.976 750.883C519.382 750.883 519.652 750.883 519.922 750.883C520.463 750.883 521.003 751.018 521.544 751.153C522.49 751.423 523.435 751.828 523.976 752.367C525.327 753.312 525.868 754.122 525.732 754.122C525.597 754.257 524.922 753.582 523.706 752.907C523.03 752.502 522.219 752.233 521.273 751.963C520.868 751.828 520.328 751.828 519.787 751.693C519.247 751.693 518.841 751.693 518.706 751.963C518.706 752.098 518.706 752.098 518.841 752.233C518.976 752.367 519.247 752.502 519.517 752.637C520.057 752.907 520.463 753.042 520.868 753.177C521.814 753.447 522.625 753.582 523.435 753.717C524.787 753.582 525.732 753.582 525.732 753.717Z" fill="#263238"/>
<path d="M525.462 754.122C525.327 754.122 524.787 753.447 524.516 751.828C524.381 751.018 524.246 750.073 524.516 749.129C524.652 748.589 524.787 748.049 524.922 747.51C525.192 746.97 525.327 746.295 526.273 746.025C526.813 745.89 527.219 746.295 527.354 746.565C527.624 746.835 527.624 747.105 527.759 747.375C527.894 747.914 528.03 748.454 528.03 748.994C528.03 750.073 527.759 751.018 527.354 751.693C526.543 753.177 525.597 753.582 525.597 753.447C525.462 753.312 526.273 752.772 526.813 751.423C527.084 750.748 527.354 749.938 527.219 748.994C527.219 748.589 527.084 748.049 526.949 747.51C526.813 746.97 526.543 746.565 526.408 746.7C526.138 746.7 525.868 747.24 525.732 747.644C525.597 748.184 525.462 748.589 525.327 749.129C525.192 750.073 525.192 750.883 525.192 751.693C525.192 753.177 525.597 753.987 525.462 754.122Z" fill="#263238"/>
<path d="M461.954 650.757L419.796 742.652L447.631 759.384L506.14 648.868" fill="#292929"/>
<path d="M531.678 761.543L501.41 766.401L483.304 658.314L393.718 664.791C391.285 664.926 388.988 664.791 386.691 664.116C361.558 657.234 364.937 625.118 367.369 619.991L491.411 616.482C504.924 616.077 516.409 625.928 518.301 639.152L531.678 761.543Z" fill="#292929"/>
<path d="M365.882 625.118L366.288 579.373C366.288 579.373 360.342 549.686 358.586 537.947C355.883 519.865 352.1 511.228 381.962 498.274L388.448 495.71L398.582 495.845C410.608 496.79 423.174 507.585 423.58 514.737L435.2 617.697L365.882 625.118Z" fill="white"/>
<path fill-rule="evenodd" clip-rule="evenodd" d="M418.128 527.42C419.1 527.42 419.887 531.321 419.887 536.132H421.295C421.295 530.95 419.877 526.75 418.128 526.75C417.134 526.75 416.246 528.012 415.666 529.986C415.085 528.012 414.198 526.75 413.203 526.75C411.455 526.75 410.036 530.95 410.036 536.132H411.444C411.444 531.321 412.232 527.42 413.203 527.42C414.174 527.42 414.962 531.02 414.962 535.462H416.369C416.369 531.02 417.157 527.42 418.128 527.42Z" fill="#FFBC0D"/>
<path d="M367.774 508.934C367.774 508.934 359.396 527.016 361.018 543.479L392.366 573.436C399.393 581.263 408.176 584.501 419.391 585.176L484.115 592.193L485.871 575.325L424.255 557.918C421.823 557.513 420.607 554.949 418.715 553.33L367.774 508.934Z" fill="white"/>
<path d="M362.775 514.062C362.775 514.062 363.18 513.657 363.991 513.252C364.937 512.848 366.288 512.308 368.18 512.038C370.071 511.768 372.504 511.498 375.206 512.038C375.882 512.173 376.557 512.308 377.233 512.713C377.908 513.117 378.449 513.522 379.125 514.062C380.341 515.007 381.692 516.086 382.908 517.301C385.475 519.73 387.908 522.833 390.88 525.937C393.718 529.04 396.961 532.414 400.339 535.922C403.717 539.431 407.5 543.074 411.419 546.853C413.446 548.742 415.473 550.631 417.634 552.52C418.715 553.465 419.796 554.409 420.877 555.489C421.958 556.433 423.175 557.378 424.526 557.648C442.902 562.776 463.846 568.713 486.142 575.055L486.412 575.19V575.46C486.277 576.675 486.142 577.889 486.007 579.238C485.466 583.691 485.061 588.145 484.655 592.328V592.733H484.25C474.791 591.653 465.603 590.708 456.82 589.764C452.361 589.224 448.037 588.819 443.848 588.279C439.659 587.875 435.471 587.47 431.417 587.065C427.363 586.66 423.445 586.12 419.661 585.581C415.878 585.041 412.23 584.366 408.716 583.017C405.338 581.802 402.23 580.048 399.528 578.159C396.826 576.27 394.258 574.246 391.961 572.356C382.638 564.53 375.882 557.378 371.152 552.655C368.855 550.226 366.963 548.337 365.883 546.988C365.342 546.313 364.802 545.908 364.531 545.503C364.261 545.233 364.126 544.964 364.126 544.964C364.126 544.964 364.261 545.098 364.666 545.503C364.937 545.908 365.477 546.313 366.018 546.988C367.234 548.202 369.125 550.091 371.423 552.52C376.152 557.243 383.043 564.26 392.367 572.087C394.664 573.976 397.231 576 399.933 577.889C402.636 579.778 405.609 581.532 408.987 582.747C412.365 583.961 416.013 584.636 419.796 585.176C423.58 585.716 427.498 586.12 431.552 586.66C435.606 587.065 439.795 587.47 443.983 587.875C448.172 588.279 452.496 588.819 456.955 589.224C465.738 590.169 474.926 591.248 484.385 592.193L483.98 592.463C484.385 588.279 484.926 583.826 485.331 579.373C485.466 578.024 485.601 576.81 485.736 575.595L486.007 576C463.711 569.658 442.767 563.72 424.391 558.458C422.769 558.188 421.553 557.108 420.472 556.164C419.391 555.084 418.445 554.139 417.229 553.195C415.067 551.306 413.04 549.417 411.013 547.527C407.095 543.749 403.447 540.106 399.933 536.597C396.555 533.089 393.312 529.715 390.475 526.612C387.637 523.508 385.205 520.404 382.638 517.975C381.422 516.761 380.07 515.681 378.854 514.602C378.179 514.062 377.638 513.657 376.963 513.252C376.287 512.848 375.611 512.713 374.936 512.578C372.233 512.038 369.936 512.173 368.044 512.443C366.153 512.713 364.802 513.117 363.856 513.522C363.18 513.792 362.775 514.197 362.775 514.062Z" fill="#292929"/>
<path d="M378.854 456.173L381.962 500.703C382.503 507.99 388.583 513.657 395.88 513.657C403.852 513.657 410.338 506.91 409.797 498.814C409.527 494.631 409.257 491.122 409.257 491.122C409.257 491.122 420.067 489.503 420.202 478.708C420.337 472.5 419.256 458.332 418.31 447.536C417.634 440.25 411.554 434.582 404.257 434.582H397.771C386.421 435.122 377.908 444.972 378.854 456.173Z" fill="#E9B3A8"/>
<path d="M409.257 490.852C409.257 490.852 402.5 491.392 395.204 486.804C395.204 486.804 398.582 494.496 409.257 493.551V490.852Z" fill="#AF6150"/>
<path d="M415.878 461.3C415.878 462.11 415.202 462.785 414.392 462.92C413.581 462.92 412.77 462.38 412.77 461.57C412.77 460.76 413.446 460.086 414.256 459.951C415.067 459.816 415.743 460.491 415.878 461.3Z" fill="#292929"/>
<path d="M400.204 461.3C400.204 462.11 399.528 462.785 398.717 462.92C397.906 462.92 397.096 462.38 397.096 461.57C397.096 460.76 397.771 460.086 398.582 459.951C399.528 459.816 400.204 460.491 400.204 461.3Z" fill="#292929"/>
<path d="M406.149 470.881C406.149 470.746 407.23 470.611 408.851 470.341C409.257 470.341 409.662 470.206 409.797 469.936C409.932 469.667 409.662 469.127 409.527 468.722C409.122 467.642 408.716 466.563 408.311 465.483C406.554 460.895 405.338 457.117 405.473 457.117C405.608 456.982 407.23 460.76 408.987 465.348C409.392 466.428 409.797 467.508 410.203 468.587C410.338 469.127 410.608 469.667 410.473 470.206C410.338 470.476 410.068 470.746 409.797 470.881C409.527 471.016 409.257 471.016 409.122 471.016C407.095 470.881 406.149 470.881 406.149 470.881Z" fill="#292929"/>
<path d="M401.284 471.961C401.555 471.961 401.555 473.715 403.041 475.064C404.527 476.279 406.554 476.144 406.554 476.414C406.554 476.549 406.149 476.818 405.338 476.818C404.527 476.818 403.446 476.549 402.501 475.874C401.555 475.064 401.149 473.985 401.149 473.31C400.879 472.365 401.149 471.961 401.284 471.961Z" fill="#292929"/>
<path d="M400.474 452.124C400.339 452.529 398.717 452.394 396.69 452.529C394.799 452.664 393.177 453.339 392.907 452.934C392.772 452.799 393.042 452.259 393.718 451.854C394.393 451.45 395.339 451.045 396.555 450.91C397.771 450.775 398.852 450.91 399.528 451.315C400.203 451.45 400.609 451.854 400.474 452.124Z" fill="#292929"/>
<path d="M415.743 453.474C415.472 453.879 414.256 453.474 412.905 453.474C411.554 453.474 410.338 453.744 410.068 453.339C409.932 453.204 410.068 452.799 410.608 452.394C411.149 451.989 411.959 451.719 412.905 451.719C413.851 451.719 414.662 452.124 415.202 452.529C415.743 452.934 415.878 453.204 415.743 453.474Z" fill="#292929"/>
<path d="M382.503 464.269C382.367 464.134 375.071 462.11 375.341 469.397C375.611 476.819 382.908 475.064 382.908 474.794C382.908 474.525 382.503 464.269 382.503 464.269Z" fill="#E9B3A8"/>
<path d="M380.611 472.096C380.611 472.096 380.476 472.231 380.206 472.231C379.935 472.365 379.665 472.365 379.26 472.231C378.449 471.961 377.773 470.746 377.638 469.397C377.638 468.722 377.773 468.047 377.909 467.508C378.179 466.968 378.449 466.563 378.854 466.428C379.26 466.293 379.53 466.563 379.665 466.698C379.8 466.968 379.665 467.103 379.8 467.103C379.8 467.103 379.935 466.968 379.935 466.698C379.935 466.563 379.8 466.428 379.665 466.293C379.53 466.158 379.26 466.023 378.989 466.158C378.449 466.158 377.909 466.698 377.638 467.373C377.368 467.912 377.233 468.722 377.233 469.397C377.368 470.881 378.179 472.231 379.26 472.5C379.8 472.635 380.206 472.5 380.476 472.231C380.611 472.231 380.611 472.096 380.611 472.096Z" fill="#AF6150"/>
<path d="M378.449 463.999C379.53 463.729 381.557 464.809 381.962 465.753C382.503 466.833 382.503 468.047 383.043 468.992C383.584 470.071 384.665 471.016 385.746 470.746C386.556 470.611 387.097 469.802 387.232 469.127C387.502 468.317 387.367 467.508 387.232 466.698C386.827 463.324 386.016 459.816 385.881 456.442C385.746 452.934 386.286 449.426 388.043 446.457C389.799 443.488 393.177 441.329 396.691 441.599C398.988 441.734 401.15 442.948 403.312 443.353C406.014 443.758 408.852 442.813 410.743 440.924C411.014 440.654 412.095 439.98 412.095 439.98C412.095 439.845 411.959 438.225 411.284 437.686C406.825 433.503 398.582 432.288 392.637 433.907C386.691 435.392 381.016 439.575 378.449 445.242C376.287 450.505 376.963 458.332 378.449 463.999Z" fill="#292929"/>
<path d="M418.31 445.782C418.31 445.782 390.069 436.741 377.773 461.165C377.773 461.165 375.882 455.093 375.882 451.719C375.882 449.56 377.233 436.471 390.61 432.423C390.745 432.423 411.013 424.731 418.31 445.782Z" fill="#E8505B"/>
<path d="M393.988 446.322C394.934 447.941 396.825 449.021 398.717 449.156C400.609 449.29 402.5 448.616 403.852 447.131C404.392 448.481 405.879 449.425 407.365 449.425C408.851 449.29 410.202 448.211 410.608 446.862C411.419 447.671 412.229 448.481 413.31 448.886C414.391 449.29 415.743 449.156 416.418 448.211C417.094 447.266 416.959 445.917 416.283 444.972C415.607 444.028 414.526 443.488 413.445 443.083C410.067 441.734 406.419 440.924 402.771 441.464C399.122 442.004 395.609 443.758 393.447 446.592" fill="#292929"/>
<g opacity="0.9">
<path d="M418.31 445.782C418.31 445.782 415.067 442.004 409.257 441.734C400.879 441.329 385.34 446.052 377.773 461.165C377.773 461.165 375.882 455.093 375.882 451.719C375.882 449.56 377.233 436.471 390.61 432.423C390.745 432.423 411.013 424.731 418.31 445.782Z" fill="#FFBC0D"/>
</g>
<path d="M378.99 458.332C383.178 451.855 388.989 446.592 395.474 442.544C401.96 438.495 412.77 434.447 420.202 432.558C422.364 432.018 424.796 431.478 426.958 431.883C429.255 432.288 431.417 433.772 431.958 436.066C432.633 438.9 427.769 443.218 425.337 444.838C423.04 446.592 418.31 449.021 418.31 449.021C418.31 449.021 418.31 443.893 410.068 442.813C398.853 441.194 378.99 458.332 378.99 458.332Z" fill="#FFBC0D"/>
<g opacity="0.3">
<path d="M368.99 550.091C371.963 557.108 374.801 565.744 379.124 572.087C383.313 578.429 388.988 584.096 396.015 586.93C404.798 590.574 415.337 591.248 424.12 587.47C424.796 587.2 426.282 586.795 426.147 585.986C426.147 585.986 423.174 585.716 422.364 585.446C404.663 582.477 402.636 580.318 394.123 573.571C388.853 569.523 377.098 556.838 368.99 550.091Z" fill="#292929"/>
</g>
<path d="M425.471 601.234C425.471 601.234 425.336 601.909 424.796 602.853C424.255 603.933 423.309 605.282 421.958 606.901C419.256 610.005 414.256 613.378 408.176 615.268C402.095 617.157 396.285 617.427 392.231 617.697C390.204 617.832 388.448 617.832 387.367 617.832C386.151 617.832 385.61 617.832 385.61 617.697C385.61 617.697 386.286 617.562 387.367 617.562C388.718 617.427 390.339 617.427 392.231 617.292C396.285 617.022 402.095 616.617 408.04 614.728C413.986 612.839 418.85 609.6 421.688 606.631C424.39 603.663 425.336 601.234 425.471 601.234Z" fill="#263238"/>
<path d="M501.816 769.235C501.816 768.965 501.681 768.56 501.546 768.021C501.275 766.941 501.005 765.322 500.735 763.298C500.059 759.114 498.978 753.042 497.627 745.62C495.06 730.642 491.547 710.131 487.763 687.461C486.007 677.205 484.385 667.355 482.899 658.449L483.304 658.719C467.495 659.933 454.118 660.878 444.524 661.552C439.795 661.822 436.011 662.092 433.444 662.362C432.228 662.497 431.147 662.497 430.471 662.497C430.201 662.497 429.931 662.497 429.66 662.497C429.931 662.497 430.066 662.497 430.471 662.362C431.147 662.227 432.228 662.227 433.444 662.092C436.011 661.822 439.795 661.552 444.524 661.148C454.118 660.338 467.495 659.258 483.304 658.044H483.574V658.314C485.061 667.22 486.682 677.071 488.439 687.326C492.222 709.996 495.6 730.642 498.168 745.486C499.384 752.907 500.33 758.98 501.005 763.163C501.275 765.187 501.546 766.806 501.681 768.021C501.816 768.56 501.816 768.965 501.816 769.235Z" fill="#6F6F6F"/>
<path d="M492.357 648.598C492.492 648.733 490.06 650.757 487.493 653.456C484.79 656.155 482.763 658.584 482.628 658.449C482.493 658.314 484.25 655.75 486.952 652.916C489.655 650.217 492.222 648.463 492.357 648.598Z" fill="#6F6F6F"/>
<path d="M409.527 499.759C409.527 499.759 409.662 499.894 409.662 500.163C409.797 500.433 409.797 500.838 409.932 501.513C410.068 502.727 409.932 504.482 409.257 506.371C408.581 508.395 407.095 510.554 404.798 512.173C402.501 513.792 399.393 514.737 396.15 514.467C392.907 514.197 389.934 512.983 387.772 511.363C385.475 509.609 383.989 507.585 383.043 505.831C382.097 503.942 381.557 502.322 381.151 501.243C381.016 500.703 380.881 500.298 380.881 499.894C380.881 499.624 380.881 499.489 380.881 499.489C381.016 499.489 381.422 502.053 383.448 505.561C384.529 507.315 386.016 509.204 388.178 510.824C390.34 512.443 393.177 513.523 396.285 513.792C399.393 513.927 402.366 513.253 404.528 511.633C406.69 510.149 408.176 507.99 408.851 506.101C409.662 504.212 409.797 502.592 409.662 501.378C409.662 500.298 409.392 499.759 409.527 499.759Z" fill="#292929"/>
<path d="M428.58 558.593C428.58 558.593 428.444 558.053 428.309 557.243C428.174 556.164 428.039 554.949 427.769 553.33C427.363 549.957 426.688 545.504 426.147 540.511C425.472 535.518 425.066 530.93 424.796 527.691C424.661 526.072 424.526 524.723 424.526 523.778C424.526 522.834 424.526 522.294 424.526 522.294C424.526 522.294 424.661 522.834 424.796 523.643C424.931 524.723 425.066 525.937 425.337 527.556C425.742 530.93 426.282 535.383 426.958 540.376C427.634 545.369 428.039 549.822 428.444 553.195C428.58 554.814 428.715 556.164 428.715 557.108C428.58 558.053 428.58 558.593 428.58 558.593Z" fill="#292929"/>
</g>
</svg>
